<?xml version="1.0" encoding="UTF-8"?>
<svg version="1.1" xmlns="http://www.w3.org/2000/svg" width="256" height="256">
<path d="M0 0 C5.1972083 3.08460263 9.60810698 7.2735397 11.546875 13.08984375 C35.306875 13.08984375 59.066875 13.08984375 83.546875 13.08984375 C84.866875 10.77984375 86.186875 8.46984375 87.546875 6.08984375 C91.01733211 2.29836936 95.13419226 -0.61374094 100.28125 -1.24609375 C106.84647875 -1.33113557 112.28559283 -1.15199176 117.546875 3.08984375 C122.36444001 8.42395293 124.69374404 12.2325325 124.734375 19.46484375 C124.74855469 20.60695313 124.76273438 21.7490625 124.77734375 22.92578125 C124.546875 26.08984375 124.546875 26.08984375 123.47265625 28.19140625 C122.37178245 30.0872301 122.37178245 30.0872301 122.578125 32.421875 C123.96271062 36.23506847 126.35891811 38.78809195 129.046875 41.77734375 C134.46445142 47.92499659 134.46445142 47.92499659 135.546875 50.08984375 C136.56007812 50.05503906 137.57328125 50.02023438 138.6171875 49.984375 C139.9687333 49.9562178 141.32029719 49.92891972 142.671875 49.90234375 C143.33703125 49.87720703 144.0021875 49.85207031 144.6875 49.82617188 C150.64855009 49.73850937 154.27721994 51.63077979 159.171875 54.77734375 C164.1030603 59.57876101 165.79772241 64.28776026 166.046875 71.15234375 C165.79611253 77.58318767 164.43801344 81.1383335 159.86328125 85.80859375 C156.64692598 88.7413564 154.8948894 90.00284015 150.546875 91.08984375 C150.546875 108.24984375 150.546875 125.40984375 150.546875 143.08984375 C153.516875 144.07984375 153.516875 144.07984375 156.546875 145.08984375 C158.84765625 147.1484375 158.84765625 147.1484375 160.859375 149.52734375 C161.53613281 150.30980469 162.21289062 151.09226563 162.91015625 151.8984375 C166.67441106 156.93840635 165.98549054 163.07682339 165.546875 169.08984375 C163.36728964 175.39916979 158.65867895 180.11297816 152.8828125 183.4296875 C149.58362699 184.36206601 146.69671031 183.79931031 143.296875 183.46484375 C138.2315555 183.21809327 138.2315555 183.21809327 133.81982422 185.39794922 C130.14623242 189.22428451 127.32719222 193.59211777 124.546875 198.08984375 C123.886875 199.07984375 123.226875 200.06984375 122.546875 201.08984375 C122.86813628 203.72418629 123.36042548 205.71694472 124.546875 208.08984375 C125.42181261 215.80923002 125.30977852 221.97903955 120.36328125 228.2109375 C115.33543923 233.41178053 111.38615116 235.38393997 104.046875 235.71484375 C97.04542964 235.42311686 92.87639733 233.42771075 87.98828125 228.52734375 C85.87046994 226.12755756 84.56331403 224.13916083 83.546875 221.08984375 C59.786875 221.08984375 36.026875 221.08984375 11.546875 221.08984375 C10.226875 223.39984375 8.906875 225.70984375 7.546875 228.08984375 C4.07641789 231.88131814 -0.04044226 234.79342844 -5.1875 235.42578125 C-11.75272875 235.51082307 -17.19184283 235.33167926 -22.453125 231.08984375 C-27.27069001 225.75573457 -29.59999404 221.947155 -29.640625 214.71484375 C-29.65480469 213.57273438 -29.66898438 212.430625 -29.68359375 211.25390625 C-29.453125 208.08984375 -29.453125 208.08984375 -28.37890625 205.98828125 C-27.27803245 204.0924574 -27.27803245 204.0924574 -27.484375 201.7578125 C-28.86896062 197.94461903 -31.26516811 195.39159555 -33.953125 192.40234375 C-39.37070142 186.25469091 -39.37070142 186.25469091 -40.453125 184.08984375 C-41.46632813 184.12464844 -42.47953125 184.15945312 -43.5234375 184.1953125 C-44.8749833 184.2234697 -46.22654719 184.25076778 -47.578125 184.27734375 C-48.24328125 184.30248047 -48.9084375 184.32761719 -49.59375 184.35351562 C-55.55480009 184.44117813 -59.18346994 182.54890771 -64.078125 179.40234375 C-69.0093103 174.60092649 -70.70397241 169.89192724 -70.953125 163.02734375 C-70.70236253 156.59649983 -69.34426344 153.041354 -64.76953125 148.37109375 C-61.55317598 145.4383311 -59.8011394 144.17684735 -55.453125 143.08984375 C-55.453125 125.92984375 -55.453125 108.76984375 -55.453125 91.08984375 C-57.433125 90.42984375 -59.413125 89.76984375 -61.453125 89.08984375 C-63.75390625 87.03125 -63.75390625 87.03125 -65.765625 84.65234375 C-66.44238281 83.86988281 -67.11914062 83.08742188 -67.81640625 82.28125 C-71.58066106 77.24128115 -70.89174054 71.10286411 -70.453125 65.08984375 C-68.3236168 58.92547791 -63.82000839 54.66776601 -58.453125 51.08984375 C-55.453125 50.08984375 -55.453125 50.08984375 -52.265625 50.484375 C-45.11652598 51.43497257 -45.11652598 51.43497257 -38.70849609 48.76855469 C-35.04165466 44.94796033 -32.22880601 40.58006971 -29.453125 36.08984375 C-28.793125 35.09984375 -28.133125 34.10984375 -27.453125 33.08984375 C-27.77438628 30.45550121 -28.26667548 28.46274278 -29.453125 26.08984375 C-30.17222559 18.83720061 -30.35533232 12.67313747 -25.8828125 6.671875 C-19.04195967 -0.89792116 -9.86103101 -3.65863093 0 0 Z M11.546875 25.08984375 C9.17478771 28.86244976 9.17478771 28.86244976 9.01953125 33.0234375 C9.52355469 33.70535156 10.02757813 34.38726562 10.546875 35.08984375 C10.92956543 35.60820801 11.31225586 36.12657227 11.70654297 36.66064453 C13.10245549 38.51659106 14.5375799 40.33583308 15.984375 42.15234375 C16.72010742 43.08916992 16.72010742 43.08916992 17.47070312 44.04492188 C19.71368749 46.88119226 21.95128348 49.56541632 24.546875 52.08984375 C25.206875 51.75984375 25.866875 51.42984375 26.546875 51.08984375 C33.07472182 50.41947564 38.16440615 50.71370762 43.79296875 54.21484375 C45.8167496 55.38745458 45.8167496 55.38745458 49.546875 55.08984375 C51.34104501 54.22891558 51.34104501 54.22891558 53.109375 53.08984375 C58.11642101 50.42632115 62.99519066 50.54274723 68.546875 51.08984375 C69.536875 51.41984375 70.526875 51.74984375 71.546875 52.08984375 C72.29453125 51.13722656 73.0421875 50.18460938 73.8125 49.203125 C74.80727973 47.93618855 75.80207207 46.66926199 76.796875 45.40234375 C77.28800781 44.77650391 77.77914062 44.15066406 78.28515625 43.50585938 C78.76855469 42.89033203 79.25195312 42.27480469 79.75 41.640625 C80.2229248 41.03404053 80.69584961 40.42745605 81.18310547 39.80249023 C82.39633108 38.27889953 83.66721904 36.80163057 84.9453125 35.33203125 C85.47382813 34.59210937 86.00234375 33.8521875 86.546875 33.08984375 C85.84649209 29.51789089 85.12403058 27.66699933 82.546875 25.08984375 C79.46922579 24.79577266 79.46922579 24.79577266 75.80224609 24.86279297 C75.10945053 24.86250092 74.41665497 24.86220886 73.7028656 24.86190796 C71.40855466 24.86330344 69.11456684 24.87887456 66.8203125 24.89453125 C65.23133522 24.89826061 63.64235564 24.90110795 62.05337524 24.90310669 C57.86773346 24.91074922 53.6822301 24.93040294 49.49664307 24.95251465 C45.22694776 24.97295979 40.95723013 24.98210555 36.6875 24.9921875 C28.30722809 25.01364832 19.92706875 25.04779164 11.546875 25.08984375 Z M-17.453125 39.08984375 C-19.5884535 41.64389051 -21.70945816 44.2094659 -23.828125 46.77734375 C-24.43140625 47.49857422 -25.0346875 48.21980469 -25.65625 48.96289062 C-29.96839 54.02294236 -29.96839 54.02294236 -32.453125 60.08984375 C-31.7399337 61.80798642 -31.01803612 63.52492507 -30.19921875 65.1953125 C-28.16094449 70.37103509 -29.43707184 75.11691261 -31.453125 80.08984375 C-31.38373742 85.64085044 -27.47898352 88.69324668 -23.828125 92.40234375 C-22.5484443 93.73207778 -21.26978773 95.06279819 -19.9921875 96.39453125 C-19.07228027 97.34730957 -19.07228027 97.34730957 -18.13378906 98.31933594 C-15.52753253 101.06491589 -13.09361152 103.94636655 -10.6875 106.8671875 C-9.50586846 108.32441917 -9.50586846 108.32441917 -7.453125 108.08984375 C-5.95038614 106.64301323 -5.95038614 106.64301323 -4.390625 104.71484375 C-1.61783968 101.44526773 1.21288717 98.25053824 4.109375 95.08984375 C4.85832031 94.24421875 5.60726562 93.39859375 6.37890625 92.52734375 C7.739458 90.99764232 9.12914842 89.49287217 10.55859375 88.02734375 C12.3149311 86.06971829 13.57850315 84.53870717 14.546875 82.08984375 C14.12531264 79.42873136 13.28445182 77.18334905 12.296875 74.6796875 C10.83729817 69.63958624 12.64113739 64.49595539 14.4453125 59.703125 C14.60422515 55.61418032 12.04004896 53.43942197 9.421875 50.58984375 C8.69097656 49.75646484 8.69097656 49.75646484 7.9453125 48.90625 C4.93619231 45.50498382 1.78695228 42.27057896 -1.453125 39.08984375 C-2.443125 39.41984375 -3.433125 39.74984375 -4.453125 40.08984375 C-9.04071945 40.23783067 -12.96312292 40.07545396 -17.453125 39.08984375 Z M95.546875 39.08984375 C93.79602166 41.15162449 92.04617119 43.21424252 90.296875 45.27734375 C89.80574219 45.85548828 89.31460938 46.43363281 88.80859375 47.02929688 C87.83801264 48.17458259 86.87243554 49.32412929 85.91210938 50.47802734 C84.68970421 51.92121741 83.41059461 53.31592694 82.125 54.703125 C80.28196649 56.96569808 80.28196649 56.96569808 80.71875 59.61328125 C80.99203125 60.43054688 81.2653125 61.2478125 81.546875 62.08984375 C83.22001246 68.06824955 83.96638382 71.54459135 81.359375 77.33984375 C80.27669069 80.08498252 80.27669069 80.08498252 80.546875 83.08984375 C83.39651456 87.93821748 87.82127421 91.72487846 91.89990234 95.52734375 C93.97963257 97.50040533 95.86783182 99.60304077 97.734375 101.77734375 C98.24355469 102.35871094 98.75273437 102.94007812 99.27734375 103.5390625 C100.546875 105.08984375 100.546875 105.08984375 102.546875 108.08984375 C106.80220334 106.4852092 109.40686378 103.26889983 112.359375 99.96484375 C112.88764893 99.38025391 113.41592285 98.79566406 113.96020508 98.19335938 C115.01146362 97.02797707 116.06027207 95.86037925 117.10644531 94.69042969 C118.33833355 93.32157218 119.59275817 91.97305325 120.8515625 90.62890625 C121.47289062 89.95601562 122.09421875 89.283125 122.734375 88.58984375 C123.26417969 88.02265625 123.79398438 87.45546875 124.33984375 86.87109375 C125.86277411 84.62366254 126.25292131 82.77433256 126.546875 80.08984375 C126.2375 79.32671875 125.928125 78.56359375 125.609375 77.77734375 C123.93012086 73.52981858 123.62978332 69.2139224 125.44897461 65.00048828 C125.77905518 64.29005371 126.10913574 63.57961914 126.44921875 62.84765625 C127.43664113 59.98733365 127.81810714 58.7290487 126.62280273 55.91210938 C125.01348853 53.69507308 123.29474095 51.71384149 121.421875 49.71484375 C120.50921875 48.66876953 120.50921875 48.66876953 119.578125 47.6015625 C117.93301453 45.73015955 116.26199333 43.89709873 114.546875 42.08984375 C114.01980957 41.51669434 113.49274414 40.94354492 112.94970703 40.35302734 C112.48677246 39.93617676 112.02383789 39.51932617 111.546875 39.08984375 C109.73818034 39.39404921 109.73818034 39.39404921 107.546875 40.08984375 C103.36654339 40.33980172 99.5932709 40.2278926 95.546875 39.08984375 Z M37.546875 91.08984375 C37.546875 108.24984375 37.546875 125.40984375 37.546875 143.08984375 C45.25815282 148.62496267 45.25815282 148.62496267 49.234375 147.58984375 C49.9975 147.09484375 50.760625 146.59984375 51.546875 146.08984375 C53.526875 145.09984375 55.506875 144.10984375 57.546875 143.08984375 C57.546875 125.92984375 57.546875 108.76984375 57.546875 91.08984375 C47.546875 84.46915039 47.546875 84.46915039 37.546875 91.08984375 Z M-42.453125 90.08984375 C-42.123125 90.74984375 -41.793125 91.40984375 -41.453125 92.08984375 C-42.443125 92.58484375 -42.443125 92.58484375 -43.453125 93.08984375 C-43.453125 108.92984375 -43.453125 124.76984375 -43.453125 141.08984375 C-42.793125 141.41984375 -42.133125 141.74984375 -41.453125 142.08984375 C-41.783125 142.74984375 -42.113125 143.40984375 -42.453125 144.08984375 C-39.47697732 144.42985067 -39.47697732 144.42985067 -37.9453125 142.69140625 C-37.14480469 141.71300781 -37.14480469 141.71300781 -36.328125 140.71484375 C-33.59307093 137.44893531 -30.81552464 134.24532185 -27.953125 131.08984375 C-24.07613218 126.7938963 -20.24809602 122.45833129 -16.453125 118.08984375 C-18.11391432 113.94290315 -21.11298685 111.0227928 -24.140625 107.83984375 C-25.22598657 106.68166966 -26.3106245 105.52281698 -27.39453125 104.36328125 C-27.91934082 103.80350586 -28.44415039 103.24373047 -28.98486328 102.66699219 C-32.72466255 98.64984831 -36.40651933 94.65975225 -39.453125 90.08984375 C-40.443125 90.08984375 -41.433125 90.08984375 -42.453125 90.08984375 Z M22.546875 90.08984375 C17.86436105 95.07517779 13.19839123 100.07557618 8.546875 105.08984375 C7.74894531 105.94835937 6.95101562 106.806875 6.12890625 107.69140625 C3.15289454 110.97834455 0.77601016 113.7195854 -0.453125 118.08984375 C3.34184602 122.45833129 7.16988218 126.7938963 11.046875 131.08984375 C14.92386782 135.3857912 18.75190398 139.72135621 22.546875 144.08984375 C24.526875 143.59484375 24.526875 143.59484375 26.546875 143.08984375 C26.546875 125.92984375 26.546875 108.76984375 26.546875 91.08984375 C25.226875 90.75984375 23.906875 90.42984375 22.546875 90.08984375 Z M68.546875 91.08984375 C68.546875 108.24984375 68.546875 125.40984375 68.546875 143.08984375 C69.866875 143.41984375 71.186875 143.74984375 72.546875 144.08984375 C77.22938895 139.10450971 81.89535877 134.10411132 86.546875 129.08984375 C87.34480469 128.23132813 88.14273438 127.3728125 88.96484375 126.48828125 C91.94085546 123.20134295 94.31773984 120.4601021 95.546875 116.08984375 C91.00736421 110.86429757 86.4080393 105.69721492 81.76171875 100.56640625 C79.100171 97.59035462 76.51769429 94.55139118 73.95703125 91.48828125 C71.90778998 89.45606969 71.05216865 89.83719693 68.546875 91.08984375 Z M133.0390625 91.48828125 C132.50539062 92.14054687 131.97171875 92.7928125 131.421875 93.46484375 C128.68682093 96.73075219 125.90927464 99.93436565 123.046875 103.08984375 C119.16988218 107.3857912 115.34184602 111.72135621 111.546875 116.08984375 C113.20766432 120.23678435 116.20673685 123.1568947 119.234375 126.33984375 C120.31973657 127.49801784 121.4043745 128.65687052 122.48828125 129.81640625 C123.01309082 130.37618164 123.53790039 130.93595703 124.07861328 131.51269531 C127.81841255 135.52983919 131.50026933 139.51993525 134.546875 144.08984375 C136.031875 143.59484375 136.031875 143.59484375 137.546875 143.08984375 C137.051875 142.59484375 137.051875 142.59484375 136.546875 142.08984375 C137.536875 141.59484375 137.536875 141.59484375 138.546875 141.08984375 C138.546875 125.24984375 138.546875 109.40984375 138.546875 93.08984375 C137.886875 92.75984375 137.226875 92.42984375 136.546875 92.08984375 C136.876875 91.42984375 137.206875 90.76984375 137.546875 90.08984375 C134.57072732 89.74983683 134.57072732 89.74983683 133.0390625 91.48828125 Z M-10.85424805 127.33984375 C-11.38574463 127.91734375 -11.91724121 128.49484375 -12.46484375 129.08984375 C-13.05499268 129.72615723 -13.6451416 130.3624707 -14.25317383 131.01806641 C-14.87603271 131.70175293 -15.4988916 132.38543945 -16.140625 133.08984375 C-16.77186279 133.77739746 -17.40310059 134.46495117 -18.0534668 135.17333984 C-19.29958773 136.53347546 -20.54322581 137.89589063 -21.78417969 139.26074219 C-23.14263745 140.74956103 -24.51809089 142.22285858 -25.8984375 143.69140625 C-26.51460937 144.35914063 -27.13078125 145.026875 -27.765625 145.71484375 C-28.53326172 146.53855469 -28.53326172 146.53855469 -29.31640625 147.37890625 C-30.78584043 149.59063193 -31.15827653 151.46569233 -31.453125 154.08984375 C-31.14375 154.85296875 -30.834375 155.61609375 -30.515625 156.40234375 C-28.83637086 160.64986892 -28.53603332 164.9657651 -30.35522461 169.17919922 C-30.68530518 169.88963379 -31.01538574 170.60006836 -31.35546875 171.33203125 C-32.34289113 174.19235385 -32.72435714 175.4506388 -31.52905273 178.26757812 C-29.91973853 180.48461442 -28.20099095 182.46584601 -26.328125 184.46484375 C-25.7196875 185.16222656 -25.11125 185.85960937 -24.484375 186.578125 C-22.83926453 188.44952795 -21.16824333 190.28258877 -19.453125 192.08984375 C-18.92605957 192.66299316 -18.39899414 193.23614258 -17.85595703 193.82666016 C-17.39302246 194.24351074 -16.93008789 194.66036133 -16.453125 195.08984375 C-14.64443034 194.78563829 -14.64443034 194.78563829 -12.453125 194.08984375 C-8.27279339 193.83988578 -4.4995209 193.9517949 -0.453125 195.08984375 C1.29772834 193.02806301 3.04757881 190.96544498 4.796875 188.90234375 C5.28800781 188.32419922 5.77914062 187.74605469 6.28515625 187.15039062 C7.25573736 186.00510491 8.22131446 184.85555821 9.18164062 183.70166016 C10.40404579 182.25847009 11.68315539 180.86376056 12.96875 179.4765625 C14.81178351 177.21398942 14.81178351 177.21398942 14.375 174.56640625 C14.10171875 173.74914062 13.8284375 172.931875 13.546875 172.08984375 C11.87373754 166.11143795 11.12736618 162.63509615 13.734375 156.83984375 C14.81705931 154.09470498 14.81705931 154.09470498 14.546875 151.08984375 C11.69723544 146.24147002 7.27247579 142.45480904 3.19384766 138.65234375 C1.11411743 136.67928217 -0.77408182 134.57664673 -2.640625 132.40234375 C-3.14980469 131.82097656 -3.65898438 131.23960937 -4.18359375 130.640625 C-5.453125 129.08984375 -5.453125 129.08984375 -7.453125 126.08984375 C-9.51733575 125.86793756 -9.51733575 125.86793756 -10.85424805 127.33984375 Z M101.13671875 127.48828125 C100.31880859 128.46667969 100.31880859 128.46667969 99.484375 129.46484375 C96.71158968 132.73441977 93.88086283 135.92914926 90.984375 139.08984375 C90.23542969 139.93546875 89.48648438 140.78109375 88.71484375 141.65234375 C87.354292 143.18204518 85.96460158 144.68681533 84.53515625 146.15234375 C82.7788189 148.10996921 81.51524685 149.64098033 80.546875 152.08984375 C80.96843736 154.75095614 81.80929818 156.99633845 82.796875 159.5 C84.25645183 164.54010126 82.45261261 169.68373211 80.6484375 174.4765625 C80.48952485 178.56550718 83.05370104 180.74026553 85.671875 183.58984375 C86.15914062 184.14542969 86.64640625 184.70101562 87.1484375 185.2734375 C90.15755769 188.67470368 93.30679772 191.90910854 96.546875 195.08984375 C98.031875 194.59484375 98.031875 194.59484375 99.546875 194.08984375 C104.13446945 193.94185683 108.05687292 194.10423354 112.546875 195.08984375 C114.6822035 192.53579699 116.80320816 189.9702216 118.921875 187.40234375 C119.52515625 186.68111328 120.1284375 185.95988281 120.75 185.21679688 C125.06214 180.15674514 125.06214 180.15674514 127.546875 174.08984375 C126.8336837 172.37170108 126.11178612 170.65476243 125.29296875 168.984375 C123.25469449 163.80865241 124.53082184 159.06277489 126.546875 154.08984375 C126.47748742 148.53883706 122.57273352 145.48644082 118.921875 141.77734375 C117.6421943 140.44760972 116.36353773 139.11688931 115.0859375 137.78515625 C114.47266602 137.1499707 113.85939453 136.51478516 113.22753906 135.86035156 C110.62128253 133.11477161 108.18736152 130.23332095 105.78125 127.3125 C103.89331501 125.44248844 102.97662734 125.66366276 101.13671875 127.48828125 Z M46.546875 178.08984375 C44.50854076 179.36380265 42.50835374 180.70046298 40.546875 182.08984375 C37.46181412 183.11819738 35.2774478 183.22352809 32.046875 183.21484375 C31.0878125 183.21742188 30.12875 183.22 29.140625 183.22265625 C26.546875 183.08984375 26.546875 183.08984375 23.546875 182.08984375 C22.42539063 183.51876953 22.42539063 183.51876953 21.28125 184.9765625 C20.28647027 186.24349895 19.29167793 187.51042551 18.296875 188.77734375 C17.80574219 189.40318359 17.31460938 190.02902344 16.80859375 190.67382812 C16.32519531 191.28935547 15.84179688 191.90488281 15.34375 192.5390625 C14.8708252 193.14564697 14.39790039 193.75223145 13.91064453 194.37719727 C12.69741892 195.90078797 11.42653096 197.37805693 10.1484375 198.84765625 C9.61992188 199.58757812 9.09140625 200.3275 8.546875 201.08984375 C9.24725791 204.66179661 9.96971942 206.51268817 12.546875 209.08984375 C15.62452421 209.38391484 15.62452421 209.38391484 19.29150391 209.31689453 C20.33069725 209.31733261 20.33069725 209.31733261 21.3908844 209.31777954 C23.68519534 209.31638406 25.97918316 209.30081294 28.2734375 209.28515625 C29.86241478 209.28142689 31.45139436 209.27857955 33.04037476 209.27658081 C37.22601654 209.26893828 41.4115199 209.24928456 45.59710693 209.22717285 C49.86680224 209.20672771 54.13651987 209.19758195 58.40625 209.1875 C66.78652191 209.16603918 75.16668125 209.13189586 83.546875 209.08984375 C85.91896229 205.31723774 85.91896229 205.31723774 86.07421875 201.15625 C85.57019531 200.47433594 85.06617188 199.79242188 84.546875 199.08984375 C84.16418457 198.57147949 83.78149414 198.05311523 83.38720703 197.51904297 C81.99129451 195.66309644 80.5561701 193.84385442 79.109375 192.02734375 C78.61888672 191.40279297 78.12839844 190.77824219 77.62304688 190.13476562 C75.38006251 187.29849524 73.14246652 184.61427118 70.546875 182.08984375 C69.886875 182.41984375 69.226875 182.74984375 68.546875 183.08984375 C62.02498628 183.7596 56.89263303 183.42557784 51.203125 180.0625 C49.39609794 178.92418029 49.39609794 178.92418029 46.546875 178.08984375 Z " fill="#010001" transform="translate(80.453125,10.91015625)"/>
<path d="M0 0 C2.87029869 1.79393668 4.49131638 2.98263276 6 6 C6.62547746 10.55705006 6.2290646 13.29874719 3.5 16.9375 C1.09151596 19.46555417 -0.55509521 20.50114832 -4.0625 20.6875 C-8.29660406 19.94821199 -10.03959109 19.05011827 -13 16 C-14.74601232 12.50797535 -14.55838804 8.81017721 -14 5 C-10.48991881 -0.54819285 -6.12196123 -1.23104655 0 0 Z " fill="#7AA8ED" transform="translate(76,21)"/>
<path d="M0 0 C3.90568524 1.22440132 6.04158181 4.13562453 7.96875 7.6171875 C8.81578513 11.76765966 8.18801644 13.22981678 6.09375 16.9296875 C3.96333352 19.62403776 3.28731112 20.43585296 -0.01953125 20.890625 C-4.19805686 21.07321603 -6.450603 20.97268566 -10.09375 18.7421875 C-12.81626403 14.35103583 -13.17791551 10.64931672 -12.03125 5.6171875 C-9.34885153 1.22780819 -4.96428332 -0.32458776 0 0 Z " fill="#7CABF6" transform="translate(74.03125,214.3828125)"/>
<path d="M0 0 C3.0625 1.9375 3.0625 1.9375 5 5 C5.94728069 9.67719839 5.66588027 12.93459157 3.125 17 C0.96148605 19.03624843 -0.03076531 19.95620354 -2.98828125 20.08984375 C-7.13968633 19.81773485 -10.14080586 19.5233773 -13.0625 16.375 C-15.32780768 12.42898017 -15.73230839 10.47521795 -15 6 C-10.99881489 -0.1351505 -7.03777522 -1.03139809 0 0 Z " fill="#7BADFA" transform="translate(189,21)"/>
<path d="M0 0 C2.75329021 1.79562405 4.52627461 3.05254922 6 6 C6.51968957 10.4131016 6.85380637 13.86159151 4.125 17.5 C0.72942376 19.89687734 -1.7532447 20.3899764 -5.9609375 20.359375 C-9.38006698 19.7567698 -10.93189052 17.63213933 -13 15 C-14.45147903 12.09704195 -14.37239025 10.22738221 -14 7 C-10.28357524 0.99547791 -6.98731712 -0.59214552 0 0 Z " fill="#7CACF5" transform="translate(188,215)"/>
<path d="M0 0 C2.99559257 1.29011865 3.81502626 2.32340716 6 5 C7.04963592 9.46498973 6.53102537 12.89177315 4.5625 17 C0.91407112 19.84755425 -2.40440413 20.56451091 -7 20 C-10.12766096 18.3453246 -12.39710419 16.20579162 -14 13 C-14.39447548 8.81855989 -14.45035186 6.69053952 -12.125 3.125 C-8.51674719 -0.48325281 -4.93620975 -0.77699598 0 0 Z " fill="#EF6D60" transform="translate(229,72)"/>
<path d="M0 0 C3.34139976 0.02999461 4.22721051 0.29795352 7.1875 2.1875 C10.34695358 5.4426946 10.58421243 7.73663238 10.54296875 12.2734375 C10.08745033 15.44384567 8.49684343 17.1317402 6.25 19.3125 C3.03305636 20.92097182 -0.27137222 20.92559149 -3.75 20.3125 C-7.66771408 17.14498649 -9.55848291 15.00423433 -10.125 10 C-9.65786625 5.40651813 -8.22959782 4.19802015 -4.75 1.3125 C-3.75 0.3125 -3.75 0.3125 0 0 Z " fill="#EF6E60" transform="translate(224.75,163.6875)"/>
<path d="M0 0 C2.69105198 2.17574416 4.45532928 3.91065856 6 7 C6.4136968 11.65408901 5.81070393 14.25239476 3 18 C-0.68497796 20.45665197 -3.71971786 20.70086491 -8 20 C-10.8100346 18.20636089 -12.50940468 16.98119065 -14 14 C-14.5811138 6.91041162 -14.5811138 6.91041162 -12.125 3.0625 C-8.52738076 -0.42930691 -4.87276617 -0.8588017 0 0 Z " fill="#EF6E60" transform="translate(35,164)"/>
<path d="M0 0 C3.15228497 1.54260754 4.52886105 2.70186182 5.734375 6.0234375 C6.4153005 9.4632853 6.50376706 11.92998314 4.9921875 15.140625 C2.98614587 17.83727112 1.27594133 19.63757309 -2.0078125 20.5703125 C-5.67198777 20.77929588 -7.87012924 20.08289623 -10.9375 18.125 C-14.29451206 14.6662603 -14.47032094 11.94849811 -14.40234375 7.265625 C-14 5 -14 5 -11.5 1.9375 C-7.61110865 -0.71025581 -4.59738237 -0.65676891 0 0 Z " fill="#F16D5F" transform="translate(35,72)"/>
<path d="M0 0 C3.1521363 0.06247477 5.20893007 0.50429272 7.8125 2.3125 C10.75094324 5.91209297 11.08605031 7.70109301 10.77734375 12.21875 C10.08678803 15.42200006 8.70425425 17.18825326 6.3125 19.375 C2.5852156 20.61742813 0.23109249 20.90633458 -3.6875 20.375 C-7.62163101 17.48023548 -9.46889351 14.52765238 -10.375 9.75 C-9.51957733 5.55065233 -7.93974842 4.0719865 -4.6875 1.375 C-3.6875 0.375 -3.6875 0.375 0 0 Z " fill="#F06D5F" transform="translate(142.6875,71.625)"/>
<path d="M0 0 C2.75329021 1.79562405 4.52627461 3.05254922 6 6 C6.47847852 9.0828553 6.5463489 11.92347221 6 15 C3.4085135 18.17457096 1.92564305 19.54580349 -2.00390625 20.47265625 C-6.01769266 20.76969168 -7.82043263 20.14518213 -10.9375 17.625 C-13.90672736 13.84598336 -14.55686828 11.82619179 -14 7 C-10.28357524 0.99547791 -6.98731712 -0.59214552 0 0 Z " fill="#F06E60" transform="translate(147,164)"/>
<path d="M0 0 C3.43203219 0.8517906 5.0647359 2.79004399 7.15625 5.53515625 C8.60772903 8.4381143 8.52864025 10.30777404 8.15625 13.53515625 C6.34314858 16.46453279 4.28329101 18.97163574 1.15625 20.53515625 C-3.02519011 20.92963173 -5.15321048 20.98550811 -8.71875 18.66015625 C-11.60660797 15.77229828 -11.80205794 14.95207687 -12.21875 10.78515625 C-12.155931 7.65562768 -11.69807761 5.62129919 -9.90625 3.03515625 C-6.3223295 0.10950686 -4.50854618 -0.2930555 0 0 Z " fill="#F26E5E" transform="translate(114.84375,71.46484375)"/>
<path d="M0 0 C2.92810762 1.81651121 5.43591638 3.87183276 7 7 C7.41204834 11.63554388 6.87454146 14.30416098 4 18 C1.03622688 20.30515687 -2.31460319 20.54853523 -6.02734375 20.4375 C-8.88269785 19.80423335 -10.5052026 18.20948915 -12.15234375 15.84765625 C-13.77552905 12.30956111 -13.55305275 9.87136924 -13 6 C-9.67099375 0.604714 -6.25269403 -0.73561106 0 0 Z " fill="#F16F60" transform="translate(116,164)"/>
<path d="M0 0 C23.76 0 47.52 0 72 0 C71.67 0.66 71.34 1.32 71 2 C47.57 2 24.14 2 0 2 C0 1.34 0 0.68 0 0 Z " fill="#000000" transform="translate(92,232)"/>
<path d="M0 0 C23.76 0 47.52 0 72 0 C72 0.66 72 1.32 72 2 C48.24 2 24.48 2 0 2 C0 1.34 0 0.68 0 0 Z " fill="#000000" transform="translate(92,22)"/>
<path d="M0 0 C1.32 0.66 2.64 1.32 4 2 C4.78734859 11.01076716 4.78734859 11.01076716 1.5625 15.0625 C0.2940625 16.0215625 0.2940625 16.0215625 -1 17 C-1.33 17.33 -1.66 17.66 -2 18 C-4.01964199 18.07244053 -6.04167124 18.08377188 -8.0625 18.0625 C-9.16722656 18.05347656 -10.27195313 18.04445312 -11.41015625 18.03515625 C-12.69212891 18.01775391 -12.69212891 18.01775391 -14 18 C-13.34 17.34 -12.68 16.68 -12 16 C-10.741875 16.04125 -9.48375 16.0825 -8.1875 16.125 C-5.07769729 16.17598037 -3.92225476 15.96274707 -1 14.5625 C1.56831082 11.27185176 1.45160089 9.1845895 1.2734375 5.12109375 C1.04533081 2.81542891 1.04533081 2.81542891 0 0 Z " fill="#2F0C0A" transform="translate(151,167)"/>
<path d="M0 0 C0.33 0 0.66 0 1 0 C1 16.5 1 33 1 50 C0.67 50 0.34 50 0 50 C0 33.5 0 17 0 0 Z " fill="#000000" transform="translate(232,103)"/>
<path d="M0 0 C0.33 0 0.66 0 1 0 C1 16.5 1 33 1 50 C0.67 50 0.34 50 0 50 C0 33.5 0 17 0 0 Z " fill="#000000" transform="translate(150,103)"/>
<path d="M0 0 C0.33 0 0.66 0 1 0 C1 16.5 1 33 1 50 C0.67 50 0.34 50 0 50 C0 33.5 0 17 0 0 Z " fill="#000000" transform="translate(105,103)"/>
<path d="M0 0 C0.33 0 0.66 0 1 0 C1 16.5 1 33 1 50 C0.67 50 0.34 50 0 50 C0 33.5 0 17 0 0 Z " fill="#000000" transform="translate(23,103)"/>
<path d="M0 0 C0.33 0.99 0.66 1.98 1 3 C0.01 3.33 -0.98 3.66 -2 4 C-0.61189751 10.22414458 -0.61189751 10.22414458 2 16 C1.01 16 0.02 16 -1 16 C-3.12149527 13.32848744 -3.94443003 11.38105121 -4.4375 8 C-3.9001142 4.31506879 -2.51917486 2.67662329 0 0 Z " fill="#79A1DC" transform="translate(178,217)"/>
<path d="M0 0 C0.33 0 0.66 0 1 0 C1.33 4.29 1.66 8.58 2 13 C3.32 13.33 4.64 13.66 6 14 C6 14.66 6 15.32 6 16 C2.34683329 14.75023244 1.21934164 14.32901247 -1 11 C-1.23046875 8.5546875 -1.23046875 8.5546875 -1.1875 5.875 C-1.18105469 4.98554688 -1.17460938 4.09609375 -1.16796875 3.1796875 C-1 1 -1 1 0 0 Z " fill="#7B9EDB" transform="translate(63,219)"/>
<path d="M0 0 C1.875 1.5 1.875 1.5 3 3 C-1.76307437 3.95261487 -6.1666528 4.08333357 -11 4 C-8.04673415 -0.42989878 -5.07552658 -0.42296055 0 0 Z " fill="#E37263" transform="translate(116,164)"/>
<path d="M0 0 C2.85434908 0.6083039 4.19602272 2.12594696 5.90625 4.40625 C4.9575 4.220625 4.00875 4.035 3.03125 3.84375 C0.00756207 3.11938368 0.00756207 3.11938368 -2.09375 4.40625 C-2.42375 3.74625 -2.75375 3.08625 -3.09375 2.40625 C-5.33737573 2.1777951 -5.33737573 2.1777951 -7.21875 4.40625 C-7.8375 5.06625 -8.45625 5.72625 -9.09375 6.40625 C-9.42375 5.74625 -9.75375 5.08625 -10.09375 4.40625 C-7.10598476 0.42256302 -4.75583948 -0.21294804 0 0 Z " fill="#DD715F" transform="translate(145.09375,71.59375)"/>
<path d="M0 0 C2.36810318 0.94724127 3.75207953 1.65291134 5.25 3.75 C6.22516966 6.67550897 6.32600345 8.93556762 6 12 C5.01 12.99 4.02 13.98 3 15 C3.33 11.7 3.66 8.4 4 5 C3.01 5 2.02 5 1 5 C0.67 3.35 0.34 1.7 0 0 Z " fill="#D06D64" transform="translate(117,73)"/>
<path d="M0 0 C0.99 0.33 1.98 0.66 3 1 C2.938125 2.216875 2.87625 3.43375 2.8125 4.6875 C2.79177176 8.57750046 3.62724186 10.83632249 6 14 C3.42452602 13.65660347 2.31105887 13.39993284 0.6875 11.3125 C-0.21465796 8.27796869 0.30654652 6.05119529 1 3 C0.34 2.67 -0.32 2.34 -1 2 C-0.67 1.34 -0.34 0.68 0 0 Z " fill="#391211" transform="translate(101,169)"/>
<path d="M0 0 C0 3 0 3 -2 6 C-5.0390625 6.29296875 -5.0390625 6.29296875 -8.625 6.1875 C-9.81351563 6.16042969 -11.00203125 6.13335937 -12.2265625 6.10546875 C-13.59941406 6.05326172 -13.59941406 6.05326172 -15 6 C-14.67 5.01 -14.34 4.02 -14 3 C-13.34 3.33 -12.68 3.66 -12 4 C-6.27499445 4.64077901 -6.27499445 4.64077901 -1.5 2 C-1.005 1.34 -0.51 0.68 0 0 Z " fill="#290805" transform="translate(39,87)"/>
<path d="M0 0 C0.33 0.99 0.66 1.98 1 3 C-1.66666667 3 -4.33333333 3 -7 3 C-8.67099977 3.31088368 -10.33871537 3.64080332 -12 4 C-8.41084094 -0.78554541 -5.58334594 -0.37222306 0 0 Z " fill="#E16E66" transform="translate(35,72)"/>
<path d="M0 0 C0.99 0 1.98 0 3 0 C2 3 2 3 0 4 C-2.12890625 3.94921875 -2.12890625 3.94921875 -4.5625 3.6875 C-5.36816406 3.60886719 -6.17382812 3.53023437 -7.00390625 3.44921875 C-7.66261719 3.30097656 -8.32132813 3.15273438 -9 3 C-9.33 2.34 -9.66 1.68 -10 1 C-6.7 1.33 -3.4 1.66 0 2 C0 1.34 0 0.68 0 0 Z " fill="#7E9AD0" transform="translate(188,37)"/>
<path d="M0 0 C0.99 0 1.98 0 3 0 C3 3.96 3 7.92 3 12 C2.34 12 1.68 12 1 12 C-0.3271261 8.0186217 -0.06915913 4.14954773 0 0 Z " fill="#371011" transform="translate(101,76)"/>
<path d="M0 0 C0.33 0 0.66 0 1 0 C1.09796875 0.60328125 1.1959375 1.2065625 1.296875 1.828125 C2.20946904 6.70578282 2.87595723 9.83823388 7 13 C2.25 12.125 2.25 12.125 0 11 C0 7.37 0 3.74 0 0 Z " fill="#101A2D" transform="translate(61,28)"/>
<path d="M0 0 C0 2.79784711 -0.37195775 4.9790678 -1 7.6875 C-1.185625 8.49574219 -1.37125 9.30398437 -1.5625 10.13671875 C-1.706875 10.75160156 -1.85125 11.36648437 -2 12 C-2.66 12 -3.32 12 -4 12 C-4.33292585 7.75519536 -4.43885872 5.64457375 -2 2.0625 C-1.34 1.381875 -0.68 0.70125 0 0 Z " fill="#6F96CA" transform="translate(178,22)"/>
<path d="M0 0 C1.98567708 0.09765625 3.97135417 0.1953125 5.95703125 0.29296875 C6.28703125 0.95296875 6.61703125 1.61296875 6.95703125 2.29296875 C1.01703125 2.78796875 1.01703125 2.78796875 -5.04296875 3.29296875 C-2.04296875 0.29296875 -2.04296875 0.29296875 0 0 Z " fill="#738FBD" transform="translate(70.04296875,214.70703125)"/>
<path d="M0 0 C0.33 1.32 0.66 2.64 1 4 C-2.90028225 6.60018816 -6.47434569 6.15085514 -11 6 C-11 5.67 -11 5.34 -11 5 C-7.7 4.34 -4.4 3.68 -1 3 C-0.67 2.01 -0.34 1.02 0 0 Z " fill="#2F0D0B" transform="translate(121,179)"/>
<path d="M0 0 C0.66 0 1.32 0 2 0 C2 0.66 2 1.32 2 2 C2.66 2.33 3.32 2.66 4 3 C3 4 3 4 1.15234375 4.09765625 C-0.8984375 4.06510417 -2.94921875 4.03255208 -5 4 C-5.33 3.34 -5.66 2.68 -6 2 C-4.02 2 -2.04 2 0 2 C0 1.34 0 0.68 0 0 Z " fill="#DB7059" transform="translate(32,88)"/>
<path d="M0 0 C3.79588866 0.54226981 5.47211993 2.20127563 8 5 C7.67 5.99 7.34 6.98 7 8 C6.690625 7.0409375 6.690625 7.0409375 6.375 6.0625 C5.10461791 3.65074923 5.10461791 3.65074923 1.875 3.25 C0.92625 3.1675 -0.0225 3.085 -1 3 C-0.67 2.01 -0.34 1.02 0 0 Z " fill="#7D9CD5" transform="translate(186,21)"/>
<path d="M0 0 C0.66 0.33 1.32 0.66 2 1 C2 1.66 2 2.32 2 3 C2.66 3.33 3.32 3.66 4 4 C3 5 3 5 1.15234375 5.09765625 C-0.8984375 5.06510417 -2.94921875 5.03255208 -5 5 C-3.35 3.35 -1.7 1.7 0 0 Z " fill="#DF725C" transform="translate(144,179)"/>
<path d="M0 0 C-2 2 -2 2 -3.9453125 2.1953125 C-5.96354167 2.13020833 -7.98177083 2.06510417 -10 2 C-5.86678317 -0.75547789 -4.77928863 -1.13193678 0 0 Z " fill="#80ACE0" transform="translate(190,233)"/>
<path d="M0 0 C2.97 0 5.94 0 9 0 C9 0.33 9 0.66 9 1 C6.03 1 3.06 1 0 1 C0 0.67 0 0.34 0 0 Z " fill="#000000" transform="translate(221,196)"/>
<path d="M0 0 C2.97 0 5.94 0 9 0 C9 0.33 9 0.66 9 1 C6.03 1 3.06 1 0 1 C0 0.67 0 0.34 0 0 Z " fill="#000000" transform="translate(139,196)"/>
<path d="M0 0 C2.97 0 5.94 0 9 0 C9 0.33 9 0.66 9 1 C6.03 1 3.06 1 0 1 C0 0.67 0 0.34 0 0 Z " fill="#000000" transform="translate(108,196)"/>
<path d="M0 0 C2.97 0 5.94 0 9 0 C9 0.33 9 0.66 9 1 C6.03 1 3.06 1 0 1 C0 0.67 0 0.34 0 0 Z " fill="#000000" transform="translate(26,196)"/>
<path d="M0 0 C2.97 0 5.94 0 9 0 C9 0.33 9 0.66 9 1 C6.03 1 3.06 1 0 1 C0 0.67 0 0.34 0 0 Z " fill="#000000" transform="translate(221,59)"/>
<path d="M0 0 C2.97 0 5.94 0 9 0 C9 0.33 9 0.66 9 1 C6.03 1 3.06 1 0 1 C0 0.67 0 0.34 0 0 Z " fill="#000000" transform="translate(139,59)"/>
<path d="M0 0 C2.97 0 5.94 0 9 0 C9 0.33 9 0.66 9 1 C6.03 1 3.06 1 0 1 C0 0.67 0 0.34 0 0 Z " fill="#000000" transform="translate(108,59)"/>
<path d="M0 0 C2.97 0 5.94 0 9 0 C9 0.33 9 0.66 9 1 C6.03 1 3.06 1 0 1 C0 0.67 0 0.34 0 0 Z " fill="#000000" transform="translate(26,59)"/>
<path d="M0 0 C1.98 0 3.96 0 6 0 C6 0.33 6 0.66 6 1 C4.02 1 2.04 1 0 1 C0 0.67 0 0.34 0 0 Z " fill="#000000" transform="translate(69,202)"/>
<path d="M0 0 C0.33 0 0.66 0 1 0 C1 1.98 1 3.96 1 6 C0.67 6 0.34 6 0 6 C0 4.02 0 2.04 0 0 Z " fill="#000000" transform="translate(202,171)"/>
<path d="M0 0 C0.33 0 0.66 0 1 0 C1 1.98 1 3.96 1 6 C0.67 6 0.34 6 0 6 C0 4.02 0 2.04 0 0 Z " fill="#000000" transform="translate(53,171)"/>
<path d="M0 0 C0.33 0 0.66 0 1 0 C1 1.98 1 3.96 1 6 C0.67 6 0.34 6 0 6 C0 4.02 0 2.04 0 0 Z " fill="#000000" transform="translate(202,79)"/>
<path d="M0 0 C0.33 0 0.66 0 1 0 C1 1.98 1 3.96 1 6 C0.67 6 0.34 6 0 6 C0 4.02 0 2.04 0 0 Z " fill="#000000" transform="translate(53,79)"/>
<path d="M0 0 C1.98 0 3.96 0 6 0 C6 0.33 6 0.66 6 1 C4.02 1 2.04 1 0 1 C0 0.67 0 0.34 0 0 Z " fill="#000000" transform="translate(181,53)"/>
<path d="M0 0 C1.65 0 3.3 0 5 0 C5 0.33 5 0.66 5 1 C3.35 1 1.7 1 0 1 C0 0.67 0 0.34 0 0 Z " fill="#000000" transform="translate(182,202)"/>
<path d="M0 0 C0.33 0 0.66 0 1 0 C1 1.65 1 3.3 1 5 C0.67 5 0.34 5 0 5 C0 3.35 0 1.7 0 0 Z " fill="#000000" transform="translate(247,175)"/>
<path d="M0 0 C0.33 0 0.66 0 1 0 C1 1.65 1 3.3 1 5 C0.67 5 0.34 5 0 5 C0 3.35 0 1.7 0 0 Z " fill="#000000" transform="translate(8,76)"/>
<path d="M0 0 C1.65 0 3.3 0 5 0 C5 0.33 5 0.66 5 1 C3.35 1 1.7 1 0 1 C0 0.67 0 0.34 0 0 Z " fill="#000000" transform="translate(69,53)"/>
<path d="M0 0 C4 1 4 1 4 1 Z " fill="#000000" transform="translate(186,247)"/>
<path d="M0 0 C4 1 4 1 4 1 Z " fill="#000000" transform="translate(73,247)"/>
<path d="M0 0 C4 1 4 1 4 1 Z " fill="#000000" transform="translate(66,247)"/>
<path d="M0 0 C1 4 1 4 1 4 Z " fill="#000100" transform="translate(206,227)"/>
<path d="M0 0 C1 4 1 4 1 4 Z " fill="#000000" transform="translate(49,227)"/>
<path d="M0 0 C1 4 1 4 1 4 Z " fill="#000000" transform="translate(206,220)"/>
<path d="M0 0 C1 4 1 4 1 4 Z " fill="#000000" transform="translate(49,220)"/>
<path d="M0 0 C1 4 1 4 1 4 Z " fill="#000000" transform="translate(165,176)"/>
<path d="M0 0 C1 4 1 4 1 4 Z " fill="#000000" transform="translate(90,176)"/>
<path d="M0 0 C1 4 1 4 1 4 Z " fill="#000000" transform="translate(8,176)"/>
<path d="M0 0 C1 4 1 4 1 4 Z " fill="#000000" transform="translate(247,169)"/>
<path d="M0 0 C1 4 1 4 1 4 Z " fill="#000000" transform="translate(165,168)"/>
<path d="M0 0 C1 4 1 4 1 4 Z " fill="#000000" transform="translate(90,168)"/>
<path d="M0 0 C1 4 1 4 1 4 Z " fill="#000000" transform="translate(8,168)"/>
<path d="M0 0 C1 4 1 4 1 4 Z " fill="#000000" transform="translate(247,84)"/>
<path d="M0 0 C1 4 1 4 1 4 Z " fill="#000000" transform="translate(165,84)"/>
<path d="M0 0 C1 4 1 4 1 4 Z " fill="#000000" transform="translate(90,84)"/>
<path d="M0 0 C1 4 1 4 1 4 Z " fill="#000000" transform="translate(8,83)"/>
<path d="M0 0 C1 4 1 4 1 4 Z " fill="#000000" transform="translate(247,76)"/>
<path d="M0 0 C1 4 1 4 1 4 Z " fill="#000000" transform="translate(165,76)"/>
<path d="M0 0 C1 4 1 4 1 4 Z " fill="#000000" transform="translate(90,76)"/>
<path d="M0 0 C1 4 1 4 1 4 Z " fill="#000002" transform="translate(206,32)"/>
<path d="M0 0 C1 4 1 4 1 4 Z " fill="#000000" transform="translate(49,32)"/>
<path d="M0 0 C1 4 1 4 1 4 Z " fill="#000000" transform="translate(206,25)"/>
<path d="M0 0 C1 4 1 4 1 4 Z " fill="#000000" transform="translate(49,25)"/>
<path d="M0 0 C4 1 4 1 4 1 Z " fill="#000000" transform="translate(186,8)"/>
<path d="M0 0 C4 1 4 1 4 1 Z " fill="#000000" transform="translate(179,8)"/>
<path d="M0 0 C4 1 4 1 4 1 Z " fill="#000000" transform="translate(66,8)"/>
<path d="M0 0 C3 1 3 1 3 1 Z " fill="#000000" transform="translate(179,247)"/>
<path d="" fill="#000000" transform="translate(0,0)"/>
<path d="" fill="#000000" transform="translate(0,0)"/>
<path d="M0 0 C3 1 3 1 3 1 Z " fill="#000000" transform="translate(177,203)"/>
<path d="M0 0 C3 1 3 1 3 1 Z " fill="#000000" transform="translate(76,203)"/>
<path d="M0 0 C3 1 3 1 3 1 Z " fill="#000000" transform="translate(217,195)"/>
<path d="M0 0 C3 1 3 1 3 1 Z " fill="#020000" transform="translate(149,195)"/>
<path d="M0 0 C3 1 3 1 3 1 Z " fill="#000000" transform="translate(135,195)"/>
<path d="M0 0 C3 1 3 1 3 1 Z " fill="#000000" transform="translate(118,195)"/>
<path d="M0 0 C3 1 3 1 3 1 Z " fill="#000000" transform="translate(104,195)"/>
<path d="M0 0 C3 1 3 1 3 1 Z " fill="#010000" transform="translate(36,195)"/>
<path d="" fill="#000000" transform="translate(0,0)"/>
<path d="" fill="#000000" transform="translate(0,0)"/>
<path d="" fill="#000000" transform="translate(0,0)"/>
<path d="" fill="#000000" transform="translate(0,0)"/>
<path d="" fill="#000000" transform="translate(0,0)"/>
<path d="" fill="#000000" transform="translate(0,0)"/>
<path d="" fill="#000000" transform="translate(0,0)"/>
<path d="" fill="#000000" transform="translate(0,0)"/>
<path d="" fill="#000000" transform="translate(0,0)"/>
<path d="" fill="#000000" transform="translate(0,0)"/>
<path d="" fill="#000000" transform="translate(0,0)"/>
<path d="" fill="#000000" transform="translate(0,0)"/>
<path d="" fill="#000000" transform="translate(0,0)"/>
<path d="M0 0 C3 1 3 1 3 1 Z " fill="#000000" transform="translate(217,60)"/>
<path d="M0 0 C3 1 3 1 3 1 Z " fill="#000000" transform="translate(149,60)"/>
<path d="M0 0 C3 1 3 1 3 1 Z " fill="#000000" transform="translate(135,60)"/>
<path d="M0 0 C3 1 3 1 3 1 Z " fill="#000000" transform="translate(118,60)"/>
<path d="M0 0 C3 1 3 1 3 1 Z " fill="#000000" transform="translate(104,60)"/>
<path d="M0 0 C3 1 3 1 3 1 Z " fill="#000000" transform="translate(36,60)"/>
<path d="M0 0 C3 1 3 1 3 1 Z " fill="#000000" transform="translate(177,52)"/>
<path d="M0 0 C3 1 3 1 3 1 Z " fill="#000000" transform="translate(76,52)"/>
<path d="" fill="#000201" transform="translate(0,0)"/>
<path d="" fill="#000000" transform="translate(0,0)"/>
<path d="M0 0 C3 1 3 1 3 1 Z " fill="#000000" transform="translate(74,8)"/>
<path d="M0 0 C2 1 2 1 2 1 Z " fill="#000000" transform="translate(191,246)"/>
<path d="M0 0 C2 1 2 1 2 1 Z " fill="#000000" transform="translate(176,246)"/>
<path d="M0 0 C2 1 2 1 2 1 Z " fill="#000000" transform="translate(78,246)"/>
<path d="M0 0 C2 1 2 1 2 1 Z " fill="#000000" transform="translate(63,246)"/>
<path d="M0 0 C2 1 2 1 2 1 Z " fill="#000000" transform="translate(193,245)"/>
<path d="M0 0 C2 1 2 1 2 1 Z " fill="#000000" transform="translate(80,245)"/>
<path d="M0 0 C2 1 2 1 2 1 Z " fill="#000000" transform="translate(61,245)"/>
<path d="M0 0 C2 1 2 1 2 1 Z " fill="#000000" transform="translate(172,244)"/>
<path d="M0 0 C2 1 2 1 2 1 Z " fill="#000000" transform="translate(82,244)"/>
<path d="" fill="#000200" transform="translate(0,0)"/>
<path d="" fill="#000100" transform="translate(0,0)"/>
<path d="" fill="#000000" transform="translate(0,0)"/>
<path d="" fill="#000100" transform="translate(0,0)"/>
<path d="" fill="#000000" transform="translate(0,0)"/>
<path d="" fill="#000000" transform="translate(0,0)"/>
<path d="" fill="#000000" transform="translate(0,0)"/>
<path d="" fill="#000000" transform="translate(0,0)"/>
<path d="" fill="#000000" transform="translate(0,0)"/>
<path d="" fill="#000000" transform="translate(0,0)"/>
<path d="" fill="#000000" transform="translate(0,0)"/>
<path d="" fill="#000000" transform="translate(0,0)"/>
<path d="" fill="#000000" transform="translate(0,0)"/>
<path d="" fill="#000000" transform="translate(0,0)"/>
<path d="" fill="#000000" transform="translate(0,0)"/>
<path d="" fill="#000000" transform="translate(0,0)"/>
<path d="" fill="#000000" transform="translate(0,0)"/>
<path d="" fill="#000000" transform="translate(0,0)"/>
<path d="" fill="#000000" transform="translate(0,0)"/>
<path d="" fill="#000000" transform="translate(0,0)"/>
<path d="" fill="#000000" transform="translate(0,0)"/>
<path d="M0 0 C2 1 2 1 2 1 Z " fill="#000000" transform="translate(189,203)"/>
<path d="M0 0 C2 1 2 1 2 1 Z " fill="#000000" transform="translate(65,203)"/>
<path d="" fill="#000000" transform="translate(0,0)"/>
<path d="" fill="#000000" transform="translate(0,0)"/>
<path d="" fill="#000000" transform="translate(0,0)"/>
<path d="" fill="#000000" transform="translate(0,0)"/>
<path d="" fill="#000000" transform="translate(0,0)"/>
<path d="" fill="#000000" transform="translate(0,0)"/>
<path d="" fill="#000000" transform="translate(0,0)"/>
<path d="" fill="#000000" transform="translate(0,0)"/>
<path d="M0 0 C2 1 2 1 2 1 Z " fill="#000000" transform="translate(231,195)"/>
<path d="M0 0 C2 1 2 1 2 1 Z " fill="#000000" transform="translate(23,195)"/>
<path d="" fill="#000000" transform="translate(0,0)"/>
<path d="M0 0 C2 1 2 1 2 1 Z " fill="#000000" transform="translate(133,194)"/>
<path d="M0 0 C2 1 2 1 2 1 Z " fill="#000000" transform="translate(121,194)"/>
<path d="" fill="#000000" transform="translate(0,0)"/>
<path d="" fill="#000000" transform="translate(0,0)"/>
<path d="M0 0 C2 1 2 1 2 1 Z " fill="#000000" transform="translate(130,192)"/>
<path d="M0 0 C2 1 2 1 2 1 Z " fill="#000000" transform="translate(124,192)"/>
<path d="" fill="#000000" transform="translate(0,0)"/>
<path d="M0 0 C2 1 2 1 2 1 Z " fill="#010101" transform="translate(127,190)"/>
<path d="" fill="#000000" transform="translate(0,0)"/>
<path d="" fill="#000002" transform="translate(0,0)"/>
<path d="" fill="#000000" transform="translate(0,0)"/>
<path d="" fill="#000000" transform="translate(0,0)"/>
<path d="" fill="#000000" transform="translate(0,0)"/>
<path d="" fill="#000000" transform="translate(0,0)"/>
<path d="" fill="#000000" transform="translate(0,0)"/>
<path d="" fill="#000000" transform="translate(0,0)"/>
<path d="" fill="#000000" transform="translate(0,0)"/>
<path d="" fill="#000000" transform="translate(0,0)"/>
<path d="" fill="#000000" transform="translate(0,0)"/>
<path d="" fill="#000000" transform="translate(0,0)"/>
<path d="" fill="#000000" transform="translate(0,0)"/>
<path d="" fill="#000000" transform="translate(0,0)"/>
<path d="" fill="#000000" transform="translate(0,0)"/>
<path d="" fill="#000000" transform="translate(0,0)"/>
<path d="" fill="#000000" transform="translate(0,0)"/>
<path d="" fill="#000000" transform="translate(0,0)"/>
<path d="" fill="#000000" transform="translate(0,0)"/>
<path d="" fill="#000000" transform="translate(0,0)"/>
<path d="" fill="#000000" transform="translate(0,0)"/>
<path d="" fill="#000000" transform="translate(0,0)"/>
<path d="" fill="#000000" transform="translate(0,0)"/>
<path d="M0 0 C2 1 2 1 2 1 Z " fill="#010000" transform="translate(239,157)"/>
<path d="M0 0 C2 1 2 1 2 1 Z " fill="#000000" transform="translate(127,157)"/>
<path d="" fill="#000000" transform="translate(0,0)"/>
<path d="" fill="#000000" transform="translate(0,0)"/>
<path d="M0 0 C2 1 2 1 2 1 Z " fill="#000000" transform="translate(235,154)"/>
<path d="M0 0 C2 1 2 1 2 1 Z " fill="#000000" transform="translate(19,154)"/>
<path d="M0 0 C2 1 2 1 2 1 Z " fill="#000000" transform="translate(233,153)"/>
<path d="M0 0 C2 1 2 1 2 1 Z " fill="#000000" transform="translate(151,153)"/>
<path d="M0 0 C2 1 2 1 2 1 Z " fill="#000000" transform="translate(134,153)"/>
<path d="M0 0 C2 1 2 1 2 1 Z " fill="#000000" transform="translate(120,153)"/>
<path d="M0 0 C2 1 2 1 2 1 Z " fill="#000000" transform="translate(103,153)"/>
<path d="M0 0 C2 1 2 1 2 1 Z " fill="#000000" transform="translate(21,153)"/>
<path d="" fill="#000000" transform="translate(0,0)"/>
<path d="" fill="#000000" transform="translate(0,0)"/>
<path d="" fill="#000000" transform="translate(0,0)"/>
<path d="" fill="#000000" transform="translate(0,0)"/>
<path d="" fill="#000000" transform="translate(0,0)"/>
<path d="" fill="#000000" transform="translate(0,0)"/>
<path d="" fill="#000000" transform="translate(0,0)"/>
<path d="" fill="#000000" transform="translate(0,0)"/>
<path d="" fill="#000000" transform="translate(0,0)"/>
<path d="" fill="#000000" transform="translate(0,0)"/>
<path d="" fill="#000000" transform="translate(0,0)"/>
<path d="" fill="#000000" transform="translate(0,0)"/>
<path d="" fill="#000000" transform="translate(0,0)"/>
<path d="" fill="#000000" transform="translate(0,0)"/>
<path d="" fill="#000000" transform="translate(0,0)"/>
<path d="" fill="#000000" transform="translate(0,0)"/>
<path d="" fill="#000000" transform="translate(0,0)"/>
<path d="" fill="#000000" transform="translate(0,0)"/>
<path d="" fill="#000000" transform="translate(0,0)"/>
<path d="" fill="#000000" transform="translate(0,0)"/>
<path d="" fill="#000000" transform="translate(0,0)"/>
<path d="" fill="#000000" transform="translate(0,0)"/>
<path d="" fill="#000000" transform="translate(0,0)"/>
<path d="" fill="#000000" transform="translate(0,0)"/>
<path d="" fill="#000000" transform="translate(0,0)"/>
<path d="" fill="#000000" transform="translate(0,0)"/>
<path d="" fill="#000000" transform="translate(0,0)"/>
<path d="" fill="#000000" transform="translate(0,0)"/>
<path d="" fill="#000000" transform="translate(0,0)"/>
<path d="" fill="#000000" transform="translate(0,0)"/>
<path d="" fill="#000000" transform="translate(0,0)"/>
<path d="" fill="#000000" transform="translate(0,0)"/>
<path d="" fill="#000000" transform="translate(0,0)"/>
<path d="" fill="#000000" transform="translate(0,0)"/>
<path d="" fill="#000000" transform="translate(0,0)"/>
<path d="" fill="#000000" transform="translate(0,0)"/>
<path d="M0 0 C2 1 2 1 2 1 Z " fill="#000000" transform="translate(233,102)"/>
<path d="M0 0 C2 1 2 1 2 1 Z " fill="#000000" transform="translate(151,102)"/>
<path d="M0 0 C2 1 2 1 2 1 Z " fill="#000000" transform="translate(134,102)"/>
<path d="M0 0 C2 1 2 1 2 1 Z " fill="#000000" transform="translate(120,102)"/>
<path d="M0 0 C2 1 2 1 2 1 Z " fill="#000000" transform="translate(103,102)"/>
<path d="M0 0 C2 1 2 1 2 1 Z " fill="#000000" transform="translate(21,102)"/>
<path d="M0 0 C2 1 2 1 2 1 Z " fill="#000000" transform="translate(235,101)"/>
<path d="" fill="#000000" transform="translate(0,0)"/>
<path d="M0 0 C2 1 2 1 2 1 Z " fill="#000000" transform="translate(122,101)"/>
<path d="" fill="#000000" transform="translate(0,0)"/>
<path d="M0 0 C2 1 2 1 2 1 Z " fill="#000000" transform="translate(19,101)"/>
<path d="M0 0 C2 1 2 1 2 1 Z " fill="#000000" transform="translate(127,98)"/>
<path d="M0 0 C2 1 2 1 2 1 Z " fill="#000000" transform="translate(15,98)"/>
<path d="" fill="#000000" transform="translate(0,0)"/>
<path d="" fill="#000000" transform="translate(0,0)"/>
<path d="" fill="#000000" transform="translate(0,0)"/>
<path d="" fill="#000000" transform="translate(0,0)"/>
<path d="" fill="#000000" transform="translate(0,0)"/>
<path d="" fill="#000000" transform="translate(0,0)"/>
<path d="" fill="#000000" transform="translate(0,0)"/>
<path d="" fill="#000000" transform="translate(0,0)"/>
<path d="" fill="#000000" transform="translate(0,0)"/>
<path d="" fill="#000000" transform="translate(0,0)"/>
<path d="" fill="#000000" transform="translate(0,0)"/>
<path d="" fill="#000000" transform="translate(0,0)"/>
<path d="" fill="#000000" transform="translate(0,0)"/>
<path d="" fill="#000000" transform="translate(0,0)"/>
<path d="" fill="#000000" transform="translate(0,0)"/>
<path d="" fill="#000000" transform="translate(0,0)"/>
<path d="" fill="#000000" transform="translate(0,0)"/>
<path d="" fill="#000000" transform="translate(0,0)"/>
<path d="" fill="#000000" transform="translate(0,0)"/>
<path d="" fill="#000000" transform="translate(0,0)"/>
<path d="" fill="#000000" transform="translate(0,0)"/>
<path d="" fill="#000000" transform="translate(0,0)"/>
<path d="M0 0 C2 1 2 1 2 1 Z " fill="#000000" transform="translate(127,65)"/>
<path d="" fill="#000000" transform="translate(0,0)"/>
<path d="" fill="#000000" transform="translate(0,0)"/>
<path d="M0 0 C2 1 2 1 2 1 Z " fill="#000000" transform="translate(130,63)"/>
<path d="M0 0 C2 1 2 1 2 1 Z " fill="#000000" transform="translate(124,63)"/>
<path d="" fill="#000000" transform="translate(0,0)"/>
<path d="" fill="#000000" transform="translate(0,0)"/>
<path d="M0 0 C2 1 2 1 2 1 Z " fill="#000000" transform="translate(133,61)"/>
<path d="M0 0 C2 1 2 1 2 1 Z " fill="#000000" transform="translate(121,61)"/>
<path d="M0 0 C2 1 2 1 2 1 Z " fill="#000000" transform="translate(231,60)"/>
<path d="M0 0 C2 1 2 1 2 1 Z " fill="#000000" transform="translate(23,60)"/>
<path d="" fill="#000000" transform="translate(0,0)"/>
<path d="" fill="#000000" transform="translate(0,0)"/>
<path d="" fill="#000000" transform="translate(0,0)"/>
<path d="" fill="#000000" transform="translate(0,0)"/>
<path d="" fill="#000000" transform="translate(0,0)"/>
<path d="" fill="#000000" transform="translate(0,0)"/>
<path d="" fill="#000000" transform="translate(0,0)"/>
<path d="" fill="#000000" transform="translate(0,0)"/>
<path d="" fill="#000000" transform="translate(0,0)"/>
<path d="M0 0 C2 1 2 1 2 1 Z " fill="#000000" transform="translate(189,52)"/>
<path d="" fill="#000000" transform="translate(0,0)"/>
<path d="" fill="#000000" transform="translate(0,0)"/>
<path d="M0 0 C2 1 2 1 2 1 Z " fill="#000000" transform="translate(65,52)"/>
<path d="" fill="#000000" transform="translate(0,0)"/>
<path d="" fill="#000000" transform="translate(0,0)"/>
<path d="" fill="#030003" transform="translate(0,0)"/>
<path d="" fill="#000000" transform="translate(0,0)"/>
<path d="" fill="#010304" transform="translate(0,0)"/>
<path d="" fill="#000000" transform="translate(0,0)"/>
<path d="" fill="#010304" transform="translate(0,0)"/>
<path d="" fill="#000203" transform="translate(0,0)"/>
<path d="" fill="#000000" transform="translate(0,0)"/>
<path d="" fill="#000000" transform="translate(0,0)"/>
<path d="" fill="#010304" transform="translate(0,0)"/>
<path d="" fill="#000203" transform="translate(0,0)"/>
<path d="" fill="#000000" transform="translate(0,0)"/>
<path d="" fill="#000000" transform="translate(0,0)"/>
<path d="" fill="#000000" transform="translate(0,0)"/>
<path d="" fill="#000000" transform="translate(0,0)"/>
<path d="" fill="#000000" transform="translate(0,0)"/>
<path d="M0 0 C2 1 2 1 2 1 Z " fill="#000000" transform="translate(172,11)"/>
<path d="M0 0 C2 1 2 1 2 1 Z " fill="#000000" transform="translate(82,11)"/>
<path d="M0 0 C2 1 2 1 2 1 Z " fill="#000000" transform="translate(193,10)"/>
<path d="M0 0 C2 1 2 1 2 1 Z " fill="#000000" transform="translate(174,10)"/>
<path d="M0 0 C2 1 2 1 2 1 Z " fill="#000000" transform="translate(61,10)"/>
<path d="M0 0 C2 1 2 1 2 1 Z " fill="#000000" transform="translate(191,9)"/>
<path d="M0 0 C2 1 2 1 2 1 Z " fill="#000000" transform="translate(176,9)"/>
<path d="M0 0 C2 1 2 1 2 1 Z " fill="#000000" transform="translate(78,9)"/>
<path d="M0 0 C2 1 2 1 2 1 Z " fill="#000000" transform="translate(63,9)"/>
<path d="" fill="#000000" transform="translate(0,0)"/>
<path d="" fill="#000000" transform="translate(0,0)"/>
<path d="" fill="#000000" transform="translate(0,0)"/>
<path d="" fill="#000000" transform="translate(0,0)"/>
<path d="" fill="#000000" transform="translate(0,0)"/>
<path d="" fill="#000000" transform="translate(0,0)"/>
<path d="" fill="#000000" transform="translate(0,0)"/>
<path d="" fill="#000000" transform="translate(0,0)"/>
<path d="" fill="#000000" transform="translate(0,0)"/>
<path d="" fill="#000000" transform="translate(0,0)"/>
<path d="" fill="#000000" transform="translate(0,0)"/>
<path d="" fill="#000000" transform="translate(0,0)"/>
<path d="" fill="#000000" transform="translate(0,0)"/>
<path d="" fill="#000000" transform="translate(0,0)"/>
<path d="" fill="#000000" transform="translate(0,0)"/>
<path d="" fill="#000000" transform="translate(0,0)"/>
<path d="" fill="#000000" transform="translate(0,0)"/>
<path d="" fill="#000000" transform="translate(0,0)"/>
<path d="" fill="#000000" transform="translate(0,0)"/>
<path d="" fill="#000200" transform="translate(0,0)"/>
<path d="" fill="#000000" transform="translate(0,0)"/>
<path d="" fill="#000200" transform="translate(0,0)"/>
<path d="" fill="#000000" transform="translate(0,0)"/>
<path d="" fill="#000200" transform="translate(0,0)"/>
<path d="" fill="#000000" transform="translate(0,0)"/>
<path d="" fill="#000200" transform="translate(0,0)"/>
<path d="" fill="#000000" transform="translate(0,0)"/>
<path d="" fill="#000000" transform="translate(0,0)"/>
<path d="" fill="#000200" transform="translate(0,0)"/>
<path d="" fill="#000000" transform="translate(0,0)"/>
<path d="" fill="#000000" transform="translate(0,0)"/>
<path d="" fill="#000200" transform="translate(0,0)"/>
<path d="" fill="#000000" transform="translate(0,0)"/>
<path d="" fill="#000000" transform="translate(0,0)"/>
<path d="" fill="#000000" transform="translate(0,0)"/>
<path d="" fill="#000000" transform="translate(0,0)"/>
<path d="" fill="#000000" transform="translate(0,0)"/>
<path d="" fill="#000000" transform="translate(0,0)"/>
<path d="" fill="#000000" transform="translate(0,0)"/>
<path d="" fill="#000000" transform="translate(0,0)"/>
<path d="" fill="#000000" transform="translate(0,0)"/>
<path d="" fill="#000000" transform="translate(0,0)"/>
<path d="" fill="#000000" transform="translate(0,0)"/>
<path d="" fill="#000000" transform="translate(0,0)"/>
<path d="" fill="#000000" transform="translate(0,0)"/>
<path d="" fill="#000000" transform="translate(0,0)"/>
<path d="" fill="#000000" transform="translate(0,0)"/>
<path d="" fill="#000000" transform="translate(0,0)"/>
<path d="" fill="#000000" transform="translate(0,0)"/>
<path d="" fill="#000000" transform="translate(0,0)"/>
<path d="" fill="#000000" transform="translate(0,0)"/>
<path d="" fill="#000000" transform="translate(0,0)"/>
<path d="" fill="#000000" transform="translate(0,0)"/>
<path d="" fill="#000000" transform="translate(0,0)"/>
<path d="" fill="#000002" transform="translate(0,0)"/>
<path d="" fill="#000000" transform="translate(0,0)"/>
<path d="" fill="#000000" transform="translate(0,0)"/>
<path d="" fill="#000000" transform="translate(0,0)"/>
<path d="" fill="#000000" transform="translate(0,0)"/>
<path d="" fill="#000000" transform="translate(0,0)"/>
<path d="" fill="#000000" transform="translate(0,0)"/>
<path d="" fill="#000000" transform="translate(0,0)"/>
<path d="" fill="#000000" transform="translate(0,0)"/>
<path d="" fill="#000000" transform="translate(0,0)"/>
<path d="" fill="#000000" transform="translate(0,0)"/>
<path d="" fill="#000000" transform="translate(0,0)"/>
<path d="" fill="#000000" transform="translate(0,0)"/>
<path d="" fill="#000000" transform="translate(0,0)"/>
<path d="" fill="#000000" transform="translate(0,0)"/>
<path d="" fill="#000000" transform="translate(0,0)"/>
<path d="" fill="#000000" transform="translate(0,0)"/>
<path d="" fill="#000000" transform="translate(0,0)"/>
<path d="" fill="#000000" transform="translate(0,0)"/>
<path d="" fill="#000000" transform="translate(0,0)"/>
<path d="" fill="#000000" transform="translate(0,0)"/>
<path d="" fill="#000000" transform="translate(0,0)"/>
<path d="" fill="#000000" transform="translate(0,0)"/>
<path d="" fill="#000000" transform="translate(0,0)"/>
<path d="" fill="#000000" transform="translate(0,0)"/>
<path d="" fill="#000000" transform="translate(0,0)"/>
<path d="" fill="#000000" transform="translate(0,0)"/>
<path d="" fill="#000000" transform="translate(0,0)"/>
<path d="" fill="#000000" transform="translate(0,0)"/>
<path d="" fill="#000000" transform="translate(0,0)"/>
<path d="" fill="#000000" transform="translate(0,0)"/>
<path d="" fill="#000000" transform="translate(0,0)"/>
<path d="" fill="#000000" transform="translate(0,0)"/>
<path d="" fill="#000000" transform="translate(0,0)"/>
<path d="" fill="#000000" transform="translate(0,0)"/>
<path d="" fill="#000000" transform="translate(0,0)"/>
<path d="" fill="#000000" transform="translate(0,0)"/>
<path d="" fill="#000000" transform="translate(0,0)"/>
<path d="" fill="#000000" transform="translate(0,0)"/>
<path d="" fill="#000000" transform="translate(0,0)"/>
<path d="" fill="#000000" transform="translate(0,0)"/>
<path d="" fill="#000000" transform="translate(0,0)"/>
<path d="" fill="#000000" transform="translate(0,0)"/>
<path d="" fill="#000000" transform="translate(0,0)"/>
<path d="" fill="#000000" transform="translate(0,0)"/>
<path d="" fill="#000000" transform="translate(0,0)"/>
<path d="" fill="#000000" transform="translate(0,0)"/>
<path d="" fill="#000000" transform="translate(0,0)"/>
<path d="" fill="#000000" transform="translate(0,0)"/>
<path d="" fill="#000000" transform="translate(0,0)"/>
<path d="" fill="#000000" transform="translate(0,0)"/>
<path d="" fill="#000000" transform="translate(0,0)"/>
<path d="" fill="#000000" transform="translate(0,0)"/>
<path d="" fill="#000000" transform="translate(0,0)"/>
<path d="" fill="#000000" transform="translate(0,0)"/>
<path d="" fill="#000000" transform="translate(0,0)"/>
<path d="" fill="#000000" transform="translate(0,0)"/>
<path d="" fill="#000000" transform="translate(0,0)"/>
<path d="" fill="#000000" transform="translate(0,0)"/>
<path d="" fill="#000000" transform="translate(0,0)"/>
<path d="" fill="#000000" transform="translate(0,0)"/>
<path d="" fill="#000000" transform="translate(0,0)"/>
<path d="" fill="#000000" transform="translate(0,0)"/>
<path d="" fill="#000000" transform="translate(0,0)"/>
<path d="" fill="#010101" transform="translate(0,0)"/>
<path d="" fill="#010101" transform="translate(0,0)"/>
<path d="" fill="#000000" transform="translate(0,0)"/>
<path d="" fill="#000000" transform="translate(0,0)"/>
<path d="" fill="#000000" transform="translate(0,0)"/>
<path d="" fill="#000000" transform="translate(0,0)"/>
<path d="" fill="#000000" transform="translate(0,0)"/>
<path d="" fill="#000000" transform="translate(0,0)"/>
<path d="" fill="#000000" transform="translate(0,0)"/>
<path d="" fill="#000000" transform="translate(0,0)"/>
<path d="" fill="#000000" transform="translate(0,0)"/>
<path d="" fill="#000000" transform="translate(0,0)"/>
<path d="" fill="#000000" transform="translate(0,0)"/>
<path d="" fill="#000000" transform="translate(0,0)"/>
<path d="" fill="#000000" transform="translate(0,0)"/>
<path d="" fill="#000000" transform="translate(0,0)"/>
<path d="" fill="#000000" transform="translate(0,0)"/>
<path d="" fill="#000000" transform="translate(0,0)"/>
<path d="" fill="#000000" transform="translate(0,0)"/>
<path d="" fill="#000000" transform="translate(0,0)"/>
<path d="" fill="#000000" transform="translate(0,0)"/>
<path d="" fill="#000000" transform="translate(0,0)"/>
<path d="" fill="#000000" transform="translate(0,0)"/>
<path d="" fill="#000000" transform="translate(0,0)"/>
<path d="" fill="#000000" transform="translate(0,0)"/>
<path d="" fill="#000000" transform="translate(0,0)"/>
<path d="" fill="#000000" transform="translate(0,0)"/>
<path d="" fill="#000000" transform="translate(0,0)"/>
<path d="" fill="#000000" transform="translate(0,0)"/>
<path d="" fill="#000000" transform="translate(0,0)"/>
<path d="" fill="#000000" transform="translate(0,0)"/>
<path d="" fill="#000000" transform="translate(0,0)"/>
<path d="" fill="#000000" transform="translate(0,0)"/>
<path d="" fill="#000000" transform="translate(0,0)"/>
<path d="" fill="#000000" transform="translate(0,0)"/>
<path d="" fill="#000000" transform="translate(0,0)"/>
<path d="" fill="#000000" transform="translate(0,0)"/>
<path d="" fill="#000000" transform="translate(0,0)"/>
<path d="" fill="#000000" transform="translate(0,0)"/>
<path d="" fill="#000000" transform="translate(0,0)"/>
<path d="" fill="#000000" transform="translate(0,0)"/>
<path d="" fill="#000000" transform="translate(0,0)"/>
<path d="" fill="#000000" transform="translate(0,0)"/>
<path d="" fill="#000000" transform="translate(0,0)"/>
<path d="" fill="#000000" transform="translate(0,0)"/>
<path d="" fill="#000000" transform="translate(0,0)"/>
<path d="" fill="#000000" transform="translate(0,0)"/>
<path d="" fill="#000000" transform="translate(0,0)"/>
<path d="" fill="#000000" transform="translate(0,0)"/>
<path d="" fill="#000000" transform="translate(0,0)"/>
<path d="" fill="#000000" transform="translate(0,0)"/>
<path d="" fill="#000000" transform="translate(0,0)"/>
<path d="" fill="#000000" transform="translate(0,0)"/>
<path d="" fill="#000000" transform="translate(0,0)"/>
<path d="" fill="#000000" transform="translate(0,0)"/>
<path d="" fill="#000000" transform="translate(0,0)"/>
<path d="" fill="#000000" transform="translate(0,0)"/>
<path d="" fill="#000000" transform="translate(0,0)"/>
<path d="" fill="#020000" transform="translate(0,0)"/>
<path d="" fill="#000000" transform="translate(0,0)"/>
<path d="" fill="#000000" transform="translate(0,0)"/>
<path d="" fill="#000000" transform="translate(0,0)"/>
<path d="" fill="#000000" transform="translate(0,0)"/>
<path d="" fill="#000000" transform="translate(0,0)"/>
<path d="" fill="#000000" transform="translate(0,0)"/>
<path d="" fill="#000000" transform="translate(0,0)"/>
<path d="" fill="#000000" transform="translate(0,0)"/>
<path d="" fill="#000000" transform="translate(0,0)"/>
<path d="" fill="#000000" transform="translate(0,0)"/>
<path d="" fill="#000000" transform="translate(0,0)"/>
<path d="" fill="#000000" transform="translate(0,0)"/>
<path d="" fill="#000000" transform="translate(0,0)"/>
<path d="" fill="#000000" transform="translate(0,0)"/>
<path d="" fill="#000000" transform="translate(0,0)"/>
<path d="" fill="#000000" transform="translate(0,0)"/>
<path d="" fill="#000000" transform="translate(0,0)"/>
<path d="" fill="#000000" transform="translate(0,0)"/>
<path d="" fill="#000000" transform="translate(0,0)"/>
<path d="" fill="#000000" transform="translate(0,0)"/>
<path d="" fill="#000000" transform="translate(0,0)"/>
<path d="" fill="#000000" transform="translate(0,0)"/>
<path d="" fill="#000000" transform="translate(0,0)"/>
<path d="" fill="#000000" transform="translate(0,0)"/>
<path d="" fill="#000000" transform="translate(0,0)"/>
<path d="" fill="#000000" transform="translate(0,0)"/>
<path d="" fill="#000000" transform="translate(0,0)"/>
<path d="" fill="#000000" transform="translate(0,0)"/>
<path d="" fill="#000000" transform="translate(0,0)"/>
<path d="" fill="#000000" transform="translate(0,0)"/>
<path d="" fill="#000000" transform="translate(0,0)"/>
<path d="" fill="#000000" transform="translate(0,0)"/>
<path d="" fill="#000000" transform="translate(0,0)"/>
<path d="" fill="#000000" transform="translate(0,0)"/>
<path d="" fill="#000000" transform="translate(0,0)"/>
<path d="" fill="#000000" transform="translate(0,0)"/>
<path d="" fill="#000000" transform="translate(0,0)"/>
<path d="" fill="#000000" transform="translate(0,0)"/>
<path d="" fill="#000000" transform="translate(0,0)"/>
<path d="" fill="#000000" transform="translate(0,0)"/>
<path d="" fill="#000000" transform="translate(0,0)"/>
<path d="" fill="#000000" transform="translate(0,0)"/>
<path d="" fill="#000000" transform="translate(0,0)"/>
<path d="" fill="#000000" transform="translate(0,0)"/>
<path d="" fill="#000000" transform="translate(0,0)"/>
<path d="" fill="#000000" transform="translate(0,0)"/>
<path d="" fill="#000000" transform="translate(0,0)"/>
<path d="" fill="#000000" transform="translate(0,0)"/>
<path d="" fill="#000000" transform="translate(0,0)"/>
<path d="" fill="#000000" transform="translate(0,0)"/>
<path d="" fill="#000000" transform="translate(0,0)"/>
<path d="" fill="#000000" transform="translate(0,0)"/>
<path d="" fill="#000000" transform="translate(0,0)"/>
<path d="" fill="#000000" transform="translate(0,0)"/>
<path d="" fill="#000000" transform="translate(0,0)"/>
<path d="" fill="#000000" transform="translate(0,0)"/>
<path d="" fill="#000000" transform="translate(0,0)"/>
<path d="" fill="#000000" transform="translate(0,0)"/>
<path d="" fill="#000000" transform="translate(0,0)"/>
<path d="" fill="#000000" transform="translate(0,0)"/>
<path d="" fill="#000000" transform="translate(0,0)"/>
<path d="" fill="#000000" transform="translate(0,0)"/>
<path d="" fill="#000000" transform="translate(0,0)"/>
<path d="" fill="#000000" transform="translate(0,0)"/>
<path d="" fill="#000000" transform="translate(0,0)"/>
<path d="" fill="#000000" transform="translate(0,0)"/>
<path d="" fill="#000000" transform="translate(0,0)"/>
<path d="" fill="#000000" transform="translate(0,0)"/>
<path d="" fill="#000000" transform="translate(0,0)"/>
<path d="" fill="#000000" transform="translate(0,0)"/>
<path d="" fill="#000000" transform="translate(0,0)"/>
<path d="" fill="#000000" transform="translate(0,0)"/>
<path d="" fill="#000000" transform="translate(0,0)"/>
<path d="" fill="#000000" transform="translate(0,0)"/>
<path d="" fill="#000000" transform="translate(0,0)"/>
<path d="" fill="#000000" transform="translate(0,0)"/>
<path d="" fill="#000000" transform="translate(0,0)"/>
<path d="" fill="#000000" transform="translate(0,0)"/>
<path d="" fill="#000000" transform="translate(0,0)"/>
<path d="" fill="#000000" transform="translate(0,0)"/>
<path d="" fill="#000000" transform="translate(0,0)"/>
<path d="" fill="#000000" transform="translate(0,0)"/>
<path d="" fill="#000000" transform="translate(0,0)"/>
<path d="" fill="#000000" transform="translate(0,0)"/>
<path d="" fill="#000000" transform="translate(0,0)"/>
<path d="" fill="#000000" transform="translate(0,0)"/>
<path d="" fill="#000000" transform="translate(0,0)"/>
<path d="" fill="#000000" transform="translate(0,0)"/>
<path d="" fill="#000000" transform="translate(0,0)"/>
<path d="" fill="#000000" transform="translate(0,0)"/>
<path d="" fill="#000000" transform="translate(0,0)"/>
<path d="" fill="#000000" transform="translate(0,0)"/>
<path d="" fill="#000000" transform="translate(0,0)"/>
<path d="" fill="#000000" transform="translate(0,0)"/>
<path d="" fill="#000000" transform="translate(0,0)"/>
<path d="" fill="#000000" transform="translate(0,0)"/>
<path d="" fill="#000000" transform="translate(0,0)"/>
<path d="" fill="#000000" transform="translate(0,0)"/>
<path d="" fill="#000000" transform="translate(0,0)"/>
<path d="" fill="#000000" transform="translate(0,0)"/>
<path d="" fill="#000000" transform="translate(0,0)"/>
<path d="" fill="#000000" transform="translate(0,0)"/>
<path d="" fill="#000000" transform="translate(0,0)"/>
<path d="" fill="#000000" transform="translate(0,0)"/>
<path d="" fill="#000000" transform="translate(0,0)"/>
<path d="" fill="#000000" transform="translate(0,0)"/>
<path d="" fill="#000000" transform="translate(0,0)"/>
<path d="" fill="#000000" transform="translate(0,0)"/>
<path d="" fill="#000000" transform="translate(0,0)"/>
<path d="" fill="#000000" transform="translate(0,0)"/>
<path d="" fill="#000000" transform="translate(0,0)"/>
<path d="" fill="#000000" transform="translate(0,0)"/>
<path d="" fill="#000000" transform="translate(0,0)"/>
<path d="" fill="#000000" transform="translate(0,0)"/>
<path d="" fill="#000000" transform="translate(0,0)"/>
<path d="" fill="#000000" transform="translate(0,0)"/>
<path d="" fill="#000000" transform="translate(0,0)"/>
<path d="" fill="#000000" transform="translate(0,0)"/>
<path d="" fill="#000000" transform="translate(0,0)"/>
<path d="" fill="#000000" transform="translate(0,0)"/>
<path d="" fill="#000000" transform="translate(0,0)"/>
<path d="" fill="#000000" transform="translate(0,0)"/>
<path d="" fill="#000000" transform="translate(0,0)"/>
<path d="" fill="#000000" transform="translate(0,0)"/>
<path d="" fill="#000000" transform="translate(0,0)"/>
<path d="" fill="#000000" transform="translate(0,0)"/>
<path d="" fill="#000000" transform="translate(0,0)"/>
<path d="" fill="#000000" transform="translate(0,0)"/>
<path d="" fill="#000000" transform="translate(0,0)"/>
<path d="" fill="#000000" transform="translate(0,0)"/>
<path d="" fill="#000000" transform="translate(0,0)"/>
<path d="" fill="#000000" transform="translate(0,0)"/>
<path d="" fill="#000000" transform="translate(0,0)"/>
<path d="" fill="#000000" transform="translate(0,0)"/>
<path d="" fill="#000000" transform="translate(0,0)"/>
<path d="" fill="#000000" transform="translate(0,0)"/>
<path d="" fill="#000000" transform="translate(0,0)"/>
<path d="" fill="#000000" transform="translate(0,0)"/>
<path d="" fill="#000000" transform="translate(0,0)"/>
<path d="" fill="#000000" transform="translate(0,0)"/>
<path d="" fill="#000000" transform="translate(0,0)"/>
<path d="" fill="#000000" transform="translate(0,0)"/>
<path d="" fill="#000000" transform="translate(0,0)"/>
<path d="" fill="#000000" transform="translate(0,0)"/>
<path d="" fill="#000000" transform="translate(0,0)"/>
<path d="" fill="#000000" transform="translate(0,0)"/>
<path d="" fill="#000000" transform="translate(0,0)"/>
<path d="" fill="#000000" transform="translate(0,0)"/>
<path d="" fill="#000000" transform="translate(0,0)"/>
<path d="" fill="#000000" transform="translate(0,0)"/>
<path d="" fill="#000000" transform="translate(0,0)"/>
<path d="" fill="#000000" transform="translate(0,0)"/>
<path d="" fill="#000000" transform="translate(0,0)"/>
<path d="" fill="#000000" transform="translate(0,0)"/>
<path d="" fill="#000000" transform="translate(0,0)"/>
<path d="" fill="#000000" transform="translate(0,0)"/>
<path d="" fill="#000000" transform="translate(0,0)"/>
<path d="" fill="#000000" transform="translate(0,0)"/>
<path d="" fill="#000000" transform="translate(0,0)"/>
<path d="" fill="#000000" transform="translate(0,0)"/>
<path d="" fill="#000000" transform="translate(0,0)"/>
<path d="" fill="#000000" transform="translate(0,0)"/>
<path d="" fill="#000000" transform="translate(0,0)"/>
<path d="" fill="#000000" transform="translate(0,0)"/>
<path d="" fill="#000000" transform="translate(0,0)"/>
<path d="" fill="#000000" transform="translate(0,0)"/>
<path d="" fill="#000000" transform="translate(0,0)"/>
<path d="" fill="#000000" transform="translate(0,0)"/>
<path d="" fill="#000000" transform="translate(0,0)"/>
<path d="" fill="#000000" transform="translate(0,0)"/>
<path d="" fill="#000000" transform="translate(0,0)"/>
<path d="" fill="#000000" transform="translate(0,0)"/>
<path d="" fill="#000000" transform="translate(0,0)"/>
<path d="" fill="#000000" transform="translate(0,0)"/>
<path d="" fill="#000000" transform="translate(0,0)"/>
<path d="" fill="#000000" transform="translate(0,0)"/>
<path d="" fill="#000000" transform="translate(0,0)"/>
<path d="" fill="#000000" transform="translate(0,0)"/>
<path d="" fill="#000000" transform="translate(0,0)"/>
<path d="" fill="#000000" transform="translate(0,0)"/>
<path d="" fill="#000000" transform="translate(0,0)"/>
<path d="" fill="#000000" transform="translate(0,0)"/>
<path d="" fill="#000000" transform="translate(0,0)"/>
<path d="" fill="#000000" transform="translate(0,0)"/>
<path d="" fill="#000000" transform="translate(0,0)"/>
<path d="" fill="#000000" transform="translate(0,0)"/>
<path d="" fill="#000000" transform="translate(0,0)"/>
<path d="" fill="#000000" transform="translate(0,0)"/>
<path d="" fill="#000000" transform="translate(0,0)"/>
<path d="" fill="#000000" transform="translate(0,0)"/>
<path d="" fill="#000000" transform="translate(0,0)"/>
<path d="" fill="#000000" transform="translate(0,0)"/>
<path d="" fill="#000000" transform="translate(0,0)"/>
<path d="" fill="#000000" transform="translate(0,0)"/>
<path d="" fill="#000000" transform="translate(0,0)"/>
<path d="" fill="#000000" transform="translate(0,0)"/>
<path d="" fill="#000000" transform="translate(0,0)"/>
<path d="" fill="#000000" transform="translate(0,0)"/>
<path d="" fill="#000000" transform="translate(0,0)"/>
<path d="" fill="#000000" transform="translate(0,0)"/>
<path d="" fill="#000000" transform="translate(0,0)"/>
<path d="" fill="#000000" transform="translate(0,0)"/>
<path d="" fill="#000000" transform="translate(0,0)"/>
<path d="" fill="#000000" transform="translate(0,0)"/>
<path d="" fill="#000000" transform="translate(0,0)"/>
<path d="" fill="#000000" transform="translate(0,0)"/>
<path d="" fill="#000000" transform="translate(0,0)"/>
<path d="" fill="#000000" transform="translate(0,0)"/>
<path d="" fill="#000000" transform="translate(0,0)"/>
<path d="" fill="#000000" transform="translate(0,0)"/>
<path d="" fill="#000000" transform="translate(0,0)"/>
<path d="" fill="#000000" transform="translate(0,0)"/>
<path d="" fill="#000000" transform="translate(0,0)"/>
<path d="" fill="#000000" transform="translate(0,0)"/>
<path d="" fill="#000000" transform="translate(0,0)"/>
<path d="" fill="#000000" transform="translate(0,0)"/>
<path d="" fill="#000000" transform="translate(0,0)"/>
<path d="" fill="#000000" transform="translate(0,0)"/>
<path d="" fill="#000000" transform="translate(0,0)"/>
<path d="" fill="#000000" transform="translate(0,0)"/>
<path d="" fill="#000000" transform="translate(0,0)"/>
<path d="" fill="#000000" transform="translate(0,0)"/>
<path d="" fill="#000000" transform="translate(0,0)"/>
<path d="" fill="#000000" transform="translate(0,0)"/>
<path d="" fill="#000000" transform="translate(0,0)"/>
<path d="" fill="#000000" transform="translate(0,0)"/>
<path d="" fill="#000000" transform="translate(0,0)"/>
<path d="" fill="#000000" transform="translate(0,0)"/>
<path d="" fill="#000000" transform="translate(0,0)"/>
<path d="" fill="#000000" transform="translate(0,0)"/>
<path d="" fill="#000000" transform="translate(0,0)"/>
<path d="" fill="#000000" transform="translate(0,0)"/>
<path d="" fill="#000000" transform="translate(0,0)"/>
<path d="" fill="#000000" transform="translate(0,0)"/>
<path d="" fill="#000000" transform="translate(0,0)"/>
<path d="" fill="#000000" transform="translate(0,0)"/>
<path d="" fill="#000000" transform="translate(0,0)"/>
<path d="" fill="#000000" transform="translate(0,0)"/>
<path d="" fill="#000000" transform="translate(0,0)"/>
<path d="" fill="#000000" transform="translate(0,0)"/>
<path d="" fill="#000000" transform="translate(0,0)"/>
<path d="" fill="#000000" transform="translate(0,0)"/>
<path d="" fill="#000000" transform="translate(0,0)"/>
<path d="" fill="#000000" transform="translate(0,0)"/>
<path d="" fill="#000000" transform="translate(0,0)"/>
<path d="" fill="#000000" transform="translate(0,0)"/>
<path d="" fill="#000000" transform="translate(0,0)"/>
<path d="" fill="#000000" transform="translate(0,0)"/>
<path d="" fill="#000000" transform="translate(0,0)"/>
<path d="" fill="#000000" transform="translate(0,0)"/>
<path d="" fill="#000000" transform="translate(0,0)"/>
<path d="" fill="#000000" transform="translate(0,0)"/>
<path d="" fill="#000000" transform="translate(0,0)"/>
<path d="" fill="#000000" transform="translate(0,0)"/>
<path d="" fill="#000000" transform="translate(0,0)"/>
<path d="" fill="#000000" transform="translate(0,0)"/>
<path d="" fill="#000000" transform="translate(0,0)"/>
<path d="" fill="#000000" transform="translate(0,0)"/>
<path d="" fill="#000000" transform="translate(0,0)"/>
<path d="" fill="#000000" transform="translate(0,0)"/>
<path d="" fill="#000000" transform="translate(0,0)"/>
<path d="" fill="#000000" transform="translate(0,0)"/>
<path d="" fill="#000000" transform="translate(0,0)"/>
<path d="" fill="#000000" transform="translate(0,0)"/>
<path d="" fill="#000000" transform="translate(0,0)"/>
<path d="" fill="#000000" transform="translate(0,0)"/>
<path d="" fill="#000000" transform="translate(0,0)"/>
<path d="" fill="#000000" transform="translate(0,0)"/>
<path d="" fill="#000000" transform="translate(0,0)"/>
<path d="" fill="#000000" transform="translate(0,0)"/>
<path d="" fill="#000000" transform="translate(0,0)"/>
<path d="" fill="#000000" transform="translate(0,0)"/>
<path d="" fill="#000000" transform="translate(0,0)"/>
<path d="" fill="#000000" transform="translate(0,0)"/>
<path d="" fill="#000000" transform="translate(0,0)"/>
<path d="" fill="#000000" transform="translate(0,0)"/>
<path d="" fill="#000000" transform="translate(0,0)"/>
<path d="" fill="#000000" transform="translate(0,0)"/>
<path d="" fill="#000000" transform="translate(0,0)"/>
<path d="" fill="#000000" transform="translate(0,0)"/>
<path d="" fill="#000000" transform="translate(0,0)"/>
<path d="" fill="#000000" transform="translate(0,0)"/>
<path d="" fill="#000000" transform="translate(0,0)"/>
<path d="" fill="#000000" transform="translate(0,0)"/>
<path d="" fill="#000000" transform="translate(0,0)"/>
<path d="" fill="#000000" transform="translate(0,0)"/>
<path d="" fill="#000000" transform="translate(0,0)"/>
<path d="" fill="#000000" transform="translate(0,0)"/>
<path d="" fill="#000000" transform="translate(0,0)"/>
<path d="" fill="#000000" transform="translate(0,0)"/>
<path d="" fill="#000000" transform="translate(0,0)"/>
<path d="" fill="#000000" transform="translate(0,0)"/>
<path d="" fill="#000000" transform="translate(0,0)"/>
<path d="" fill="#000000" transform="translate(0,0)"/>
<path d="" fill="#000000" transform="translate(0,0)"/>
<path d="" fill="#000000" transform="translate(0,0)"/>
<path d="" fill="#000000" transform="translate(0,0)"/>
<path d="" fill="#000000" transform="translate(0,0)"/>
<path d="" fill="#000000" transform="translate(0,0)"/>
<path d="" fill="#000000" transform="translate(0,0)"/>
<path d="" fill="#000000" transform="translate(0,0)"/>
<path d="" fill="#020000" transform="translate(0,0)"/>
<path d="" fill="#000000" transform="translate(0,0)"/>
<path d="" fill="#000000" transform="translate(0,0)"/>
<path d="" fill="#000000" transform="translate(0,0)"/>
<path d="" fill="#000000" transform="translate(0,0)"/>
<path d="" fill="#000000" transform="translate(0,0)"/>
<path d="" fill="#020000" transform="translate(0,0)"/>
<path d="" fill="#000000" transform="translate(0,0)"/>
<path d="" fill="#000000" transform="translate(0,0)"/>
<path d="" fill="#000000" transform="translate(0,0)"/>
<path d="" fill="#000000" transform="translate(0,0)"/>
<path d="" fill="#000000" transform="translate(0,0)"/>
<path d="" fill="#000000" transform="translate(0,0)"/>
<path d="" fill="#000000" transform="translate(0,0)"/>
<path d="" fill="#000000" transform="translate(0,0)"/>
<path d="" fill="#000000" transform="translate(0,0)"/>
<path d="" fill="#000000" transform="translate(0,0)"/>
<path d="" fill="#000000" transform="translate(0,0)"/>
<path d="" fill="#000000" transform="translate(0,0)"/>
<path d="" fill="#000000" transform="translate(0,0)"/>
<path d="" fill="#000000" transform="translate(0,0)"/>
<path d="" fill="#000000" transform="translate(0,0)"/>
<path d="" fill="#000000" transform="translate(0,0)"/>
<path d="" fill="#000000" transform="translate(0,0)"/>
<path d="" fill="#000000" transform="translate(0,0)"/>
<path d="" fill="#000000" transform="translate(0,0)"/>
<path d="" fill="#000000" transform="translate(0,0)"/>
<path d="" fill="#000000" transform="translate(0,0)"/>
<path d="" fill="#000000" transform="translate(0,0)"/>
<path d="" fill="#000000" transform="translate(0,0)"/>
<path d="" fill="#000000" transform="translate(0,0)"/>
<path d="" fill="#000000" transform="translate(0,0)"/>
<path d="" fill="#000000" transform="translate(0,0)"/>
<path d="" fill="#000000" transform="translate(0,0)"/>
<path d="" fill="#000000" transform="translate(0,0)"/>
<path d="" fill="#000000" transform="translate(0,0)"/>
<path d="" fill="#000000" transform="translate(0,0)"/>
<path d="" fill="#000000" transform="translate(0,0)"/>
<path d="" fill="#000000" transform="translate(0,0)"/>
<path d="" fill="#000000" transform="translate(0,0)"/>
<path d="" fill="#000000" transform="translate(0,0)"/>
<path d="" fill="#000000" transform="translate(0,0)"/>
<path d="" fill="#000000" transform="translate(0,0)"/>
<path d="" fill="#000000" transform="translate(0,0)"/>
<path d="" fill="#000000" transform="translate(0,0)"/>
<path d="" fill="#000000" transform="translate(0,0)"/>
<path d="" fill="#000000" transform="translate(0,0)"/>
<path d="" fill="#000000" transform="translate(0,0)"/>
<path d="" fill="#000000" transform="translate(0,0)"/>
<path d="" fill="#000000" transform="translate(0,0)"/>
<path d="" fill="#000000" transform="translate(0,0)"/>
<path d="" fill="#000000" transform="translate(0,0)"/>
<path d="" fill="#000000" transform="translate(0,0)"/>
<path d="" fill="#000000" transform="translate(0,0)"/>
<path d="" fill="#000000" transform="translate(0,0)"/>
<path d="" fill="#000000" transform="translate(0,0)"/>
<path d="" fill="#000000" transform="translate(0,0)"/>
<path d="" fill="#000000" transform="translate(0,0)"/>
<path d="" fill="#000000" transform="translate(0,0)"/>
<path d="" fill="#000000" transform="translate(0,0)"/>
<path d="" fill="#000000" transform="translate(0,0)"/>
<path d="" fill="#000000" transform="translate(0,0)"/>
<path d="" fill="#000000" transform="translate(0,0)"/>
<path d="" fill="#000000" transform="translate(0,0)"/>
<path d="" fill="#000000" transform="translate(0,0)"/>
<path d="" fill="#000000" transform="translate(0,0)"/>
<path d="" fill="#000000" transform="translate(0,0)"/>
<path d="" fill="#000000" transform="translate(0,0)"/>
<path d="" fill="#000000" transform="translate(0,0)"/>
<path d="" fill="#000000" transform="translate(0,0)"/>
<path d="" fill="#000000" transform="translate(0,0)"/>
<path d="" fill="#000000" transform="translate(0,0)"/>
<path d="" fill="#000000" transform="translate(0,0)"/>
<path d="" fill="#000000" transform="translate(0,0)"/>
<path d="" fill="#000000" transform="translate(0,0)"/>
<path d="" fill="#000000" transform="translate(0,0)"/>
<path d="" fill="#000000" transform="translate(0,0)"/>
<path d="" fill="#000000" transform="translate(0,0)"/>
<path d="" fill="#000000" transform="translate(0,0)"/>
<path d="" fill="#000000" transform="translate(0,0)"/>
<path d="" fill="#000000" transform="translate(0,0)"/>
<path d="" fill="#000000" transform="translate(0,0)"/>
<path d="" fill="#000000" transform="translate(0,0)"/>
<path d="" fill="#000000" transform="translate(0,0)"/>
<path d="" fill="#000000" transform="translate(0,0)"/>
<path d="" fill="#000000" transform="translate(0,0)"/>
<path d="" fill="#000000" transform="translate(0,0)"/>
<path d="" fill="#000000" transform="translate(0,0)"/>
<path d="" fill="#000000" transform="translate(0,0)"/>
<path d="" fill="#000000" transform="translate(0,0)"/>
<path d="" fill="#000000" transform="translate(0,0)"/>
<path d="" fill="#000000" transform="translate(0,0)"/>
<path d="" fill="#000000" transform="translate(0,0)"/>
<path d="" fill="#000000" transform="translate(0,0)"/>
<path d="" fill="#000000" transform="translate(0,0)"/>
<path d="" fill="#000000" transform="translate(0,0)"/>
<path d="" fill="#000000" transform="translate(0,0)"/>
<path d="" fill="#000000" transform="translate(0,0)"/>
<path d="" fill="#000000" transform="translate(0,0)"/>
<path d="" fill="#000000" transform="translate(0,0)"/>
<path d="" fill="#000000" transform="translate(0,0)"/>
<path d="" fill="#000000" transform="translate(0,0)"/>
<path d="" fill="#000000" transform="translate(0,0)"/>
<path d="" fill="#000000" transform="translate(0,0)"/>
<path d="" fill="#000000" transform="translate(0,0)"/>
<path d="" fill="#000000" transform="translate(0,0)"/>
<path d="" fill="#000000" transform="translate(0,0)"/>
<path d="" fill="#000100" transform="translate(0,0)"/>
<path d="" fill="#000000" transform="translate(0,0)"/>
<path d="" fill="#000000" transform="translate(0,0)"/>
<path d="" fill="#000000" transform="translate(0,0)"/>
<path d="" fill="#000000" transform="translate(0,0)"/>
<path d="" fill="#000000" transform="translate(0,0)"/>
<path d="" fill="#000000" transform="translate(0,0)"/>
<path d="" fill="#000000" transform="translate(0,0)"/>
<path d="" fill="#000000" transform="translate(0,0)"/>
<path d="" fill="#000000" transform="translate(0,0)"/>
<path d="" fill="#000000" transform="translate(0,0)"/>
<path d="" fill="#000000" transform="translate(0,0)"/>
<path d="" fill="#000203" transform="translate(0,0)"/>
<path d="" fill="#000000" transform="translate(0,0)"/>
<path d="" fill="#000203" transform="translate(0,0)"/>
<path d="" fill="#000000" transform="translate(0,0)"/>
<path d="" fill="#000000" transform="translate(0,0)"/>
<path d="" fill="#040104" transform="translate(0,0)"/>
<path d="" fill="#010304" transform="translate(0,0)"/>
<path d="" fill="#000000" transform="translate(0,0)"/>
<path d="" fill="#020204" transform="translate(0,0)"/>
<path d="" fill="#000000" transform="translate(0,0)"/>
<path d="" fill="#000000" transform="translate(0,0)"/>
<path d="" fill="#010101" transform="translate(0,0)"/>
<path d="" fill="#000000" transform="translate(0,0)"/>
<path d="" fill="#000000" transform="translate(0,0)"/>
<path d="" fill="#000000" transform="translate(0,0)"/>
<path d="" fill="#000000" transform="translate(0,0)"/>
<path d="" fill="#000000" transform="translate(0,0)"/>
<path d="" fill="#000000" transform="translate(0,0)"/>
<path d="" fill="#000000" transform="translate(0,0)"/>
<path d="" fill="#000000" transform="translate(0,0)"/>
<path d="" fill="#000000" transform="translate(0,0)"/>
<path d="" fill="#000000" transform="translate(0,0)"/>
<path d="" fill="#000000" transform="translate(0,0)"/>
<path d="" fill="#000000" transform="translate(0,0)"/>
<path d="" fill="#000000" transform="translate(0,0)"/>
<path d="" fill="#000000" transform="translate(0,0)"/>
<path d="" fill="#000000" transform="translate(0,0)"/>
<path d="" fill="#000000" transform="translate(0,0)"/>
<path d="" fill="#000000" transform="translate(0,0)"/>
<path d="" fill="#000000" transform="translate(0,0)"/>
<path d="" fill="#000000" transform="translate(0,0)"/>
<path d="" fill="#000000" transform="translate(0,0)"/>
<path d="" fill="#000000" transform="translate(0,0)"/>
<path d="" fill="#000000" transform="translate(0,0)"/>
<path d="" fill="#000000" transform="translate(0,0)"/>
<path d="" fill="#000000" transform="translate(0,0)"/>
<path d="" fill="#000000" transform="translate(0,0)"/>
<path d="" fill="#000000" transform="translate(0,0)"/>
<path d="" fill="#000000" transform="translate(0,0)"/>
<path d="" fill="#000000" transform="translate(0,0)"/>
<path d="" fill="#000000" transform="translate(0,0)"/>
<path d="" fill="#000000" transform="translate(0,0)"/>
<path d="" fill="#000000" transform="translate(0,0)"/>
</svg>
